<svg xmlns="http://www.w3.org/2000/svg" viewBox="0 0 1432.17 800"><defs><style>.cls-1{fill:#fff;}</style></defs><g id="FONDOS"><rect x="-24.42" y="-16.78" width="1484.77" height="833.57"/></g><g id="Logo"><path class="cls-1" d="M692.76,364.19h-17.9v42.55H646V288.2h46.78c29,0,43.56,16.38,43.56,38.16C736.32,346,723,364.19,692.76,364.19Zm-2.2-23c11.48,0,16.38-5.74,16.38-14.86S702,311.5,690.56,311.5h-15.7v29.72Z"/><path class="cls-1" d="M755.58,288.2h28.87V406.74H755.58Z"/><path class="cls-1" d="M852.51,407.92c-25.5,0-45.42-12.66-46.27-36.64H837c.85,9.12,6.59,13.51,14.7,13.51,8.44,0,13.84-4.22,13.84-11.15,0-21.95-59.27-10.13-58.93-52.18,0-22.46,18.4-34.95,43.23-34.95,25.83,0,43.23,12.83,44.41,35.46H863c-.51-7.6-5.91-12.16-13.68-12.33-6.92-.17-12.16,3.38-12.16,10.81,0,20.6,58.6,11.32,58.6,51C895.74,391.37,880.2,407.92,852.51,407.92Z"/><path class="cls-1" d="M917.7,288.2h28.87V406.74H917.7Z"/><path class="cls-1" d="M1026.45,286.85c28.2,0,49.47,15.87,56.23,41.54h-31.75c-4.89-10.13-13.85-15.2-24.82-15.2-17.73,0-29.89,13.17-29.89,34.11s12.16,34.11,29.89,34.11c11,0,19.93-5.07,24.82-15.2h31.75c-6.76,25.67-28,41.38-56.23,41.38-35,0-59.61-24.83-59.61-60.29S991.49,286.85,1026.45,286.85Z"/><path class="cls-1" d="M1178.43,385.8h-44.24l-7.09,20.94h-30.23l42.89-118.54h33.44l42.89,118.54h-30.57Zm-22.12-65.69-14.52,43.4H1171Z"/><path class="cls-1" d="M659,479.92h-6.4v14.33h-5.8V458.94H659c8.38,0,12.5,4.77,12.5,10.52C671.48,474.49,668.17,479.92,659,479.92Zm0-4.72c4.52,0,6.55-2.19,6.55-5.74s-2-5.8-6.55-5.8h-6.4V475.2Z"/><path class="cls-1" d="M689.23,458.94c8.38,0,12.5,4.82,12.5,10.57,0,4.16-2.24,8.64-8.19,10.1l8.75,14.64h-6.92l-8.13-14.12h-4.41v14.12H677V458.94Zm0,4.72h-6.4V475.5h6.4c4.52,0,6.55-2.49,6.55-6S693.75,463.66,689.23,463.66Z"/><path class="cls-1" d="M725.27,494.61a18.07,18.07,0,1,1,18-18.09A17.68,17.68,0,0,1,725.27,494.61Zm0-5c7,0,12.09-5.07,12.09-13.05s-5.08-13-12.09-13-12.09,5-12.09,13S718.26,489.57,725.27,489.57Z"/><path class="cls-1" d="M747.19,458.94h24.65v4.72h-9.4v30.59h-5.8V463.66h-9.45Z"/><path class="cls-1" d="M797.21,463.61H783.49V474h12.19v4.73H783.49v10.82h13.72v4.73H777.7V458.89h19.51Z"/><path class="cls-1" d="M820.45,458.48c7.36,0,13.72,3.71,16.41,10.62h-7c-1.88-3.76-5.24-5.54-9.45-5.54-7,0-12.1,5-12.1,13s5.08,13,12.1,13c4.21,0,7.57-1.77,9.45-5.53h7c-2.69,6.91-9.05,10.56-16.41,10.56a18,18,0,1,1,0-36.07Z"/><path class="cls-1" d="M859.75,458.48c7.36,0,13.72,3.71,16.41,10.62h-7c-1.88-3.76-5.24-5.54-9.45-5.54-7,0-12.1,5-12.1,13s5.08,13,12.1,13c4.21,0,7.57-1.77,9.45-5.53h7c-2.69,6.91-9,10.56-16.41,10.56a18,18,0,1,1,0-36.07Z"/><path class="cls-1" d="M882.94,458.94h5.79v35.31h-5.79Z"/><path class="cls-1" d="M912.47,494.61a18.07,18.07,0,1,1,18-18.09A17.68,17.68,0,0,1,912.47,494.61Zm0-5c7,0,12.09-5.07,12.09-13.05s-5.08-13-12.09-13-12.1,5-12.1,13S905.45,489.57,912.47,489.57Zm5.23-43.14v4.93l-11.23,5.54v-4.26Z"/><path class="cls-1" d="M965.23,458.89v35.36h-5.79L942,467.88v26.37h-5.79V458.89H942l17.43,26.32V458.89Z"/><path class="cls-1" d="M986.09,458.94h5.8v35.31h-5.8Z"/><path class="cls-1" d="M1028.53,458.89v35.36h-5.8l-17.42-26.37v26.37h-5.8V458.89h5.8l17.42,26.32V458.89Z"/><path class="cls-1" d="M1034.34,458.94H1059v4.72h-9.41v30.59h-5.79V463.66h-9.45Z"/><path class="cls-1" d="M1084.36,463.61h-13.72V474h12.19v4.73h-12.19v10.82h13.72v4.73h-19.52V458.89h19.52Z"/><path class="cls-1" d="M1124,469.1h-7c-1.88-3.56-5.23-5.34-9.45-5.34-7,0-12.09,5-12.09,12.76s5.08,12.8,12.09,12.8c6.41,0,10.42-3.86,11.28-9.8h-13.26v-4.63h19.46v4.53a17.41,17.41,0,0,1-17.48,15.13,18,18,0,1,1,0-36.07C1115,458.48,1121.31,462.19,1124,469.1Z"/><path class="cls-1" d="M1143,458.94c8.38,0,12.5,4.82,12.5,10.57,0,4.16-2.24,8.64-8.18,10.1l8.74,14.64h-6.91L1141,480.13h-4.42v14.12h-5.8V458.94Zm0,4.72h-6.4V475.5h6.4c4.52,0,6.55-2.49,6.55-6S1147.5,463.66,1143,463.66Z"/><path class="cls-1" d="M1184.21,487h-14.79l-2.54,7.21h-6.05l12.66-35.36h6.7l12.65,35.36h-6.09Zm-7.37-21.14-5.8,16.41h11.54Z"/><path class="cls-1" d="M1204.15,458.94v30.63h11.94v4.68h-17.74V458.94Z"/><path class="cls-1" d="M677.07,532.65c0,10.87-7.42,17.53-18.75,17.53H646.78V514.86h11.54C669.65,514.86,677.07,521.72,677.07,532.65Zm-18.75,12.8c8.33,0,12.8-4.78,12.8-12.8s-4.47-13.06-12.8-13.06h-5.74v25.86Z"/><path class="cls-1" d="M702.34,519.54H688.62V529.9h12.2v4.73h-12.2v10.82h13.72v4.73H682.83V514.81h19.51Z"/><path class="cls-1" d="M734.32,550.53c-7.06,0-12.5-3.86-12.5-10.11H728c.26,2.9,2.29,5.23,6.3,5.23s6.35-2.18,6.35-5.18c0-8.53-18.75-3-18.75-16,0-6.19,4.93-10.06,12.15-10.06,6.76,0,11.54,3.56,12,9.61h-6.4c-.2-2.39-2.29-4.58-6-4.68-3.35-.1-5.94,1.53-5.94,4.93,0,8,18.7,3,18.7,15.91C746.52,545.45,742.2,550.53,734.32,550.53Z"/><path class="cls-1" d="M772.91,519.54H759.19V529.9h12.19v4.73H759.19v10.82h13.72v4.73H753.4V514.81h19.51Z"/><path class="cls-1" d="M812.56,525h-7c-1.88-3.55-5.23-5.33-9.45-5.33-7,0-12.09,5-12.09,12.75s5.08,12.81,12.09,12.81c6.41,0,10.42-3.87,11.28-9.81H794.16v-4.62h19.46v4.52a17.41,17.41,0,0,1-17.48,15.14,18,18,0,1,1,0-36.08C803.51,514.4,809.86,518.11,812.56,525Z"/><path class="cls-1" d="M819.29,514.86h5.79v22.51c0,5.49,3.1,8.08,8,8.08s8-2.59,8-8.08V514.86h5.8v22.41c0,9-6.51,13.26-13.88,13.26s-13.71-4.27-13.71-13.26Z"/><path class="cls-1" d="M866.61,514.86c8.38,0,12.5,4.83,12.5,10.57,0,4.17-2.24,8.64-8.18,10.11l8.74,14.64h-6.91l-8.13-14.13h-4.42v14.13h-5.8V514.86Zm0,4.73h-6.4v11.84h6.4c4.52,0,6.55-2.49,6.55-6S871.13,519.59,866.61,519.59Z"/><path class="cls-1" d="M886.55,514.86h5.79v35.32h-5.79Z"/><path class="cls-1" d="M930.25,532.65c0,10.87-7.42,17.53-18.75,17.53H900V514.86H911.5C922.83,514.86,930.25,521.72,930.25,532.65Zm-18.75,12.8c8.34,0,12.81-4.78,12.81-12.8s-4.47-13.06-12.81-13.06h-5.74v25.86Z"/><path class="cls-1" d="M957.31,543H942.52L940,550.18h-6.05l12.65-35.37h6.71l12.65,35.37h-6.09Zm-7.37-21.14-5.8,16.42h11.54Z"/><path class="cls-1" d="M1001.73,532.65c0,10.87-7.42,17.53-18.75,17.53H971.45V514.86H983C994.31,514.86,1001.73,521.72,1001.73,532.65ZM983,545.45c8.34,0,12.81-4.78,12.81-12.8s-4.47-13.06-12.81-13.06h-5.74v25.86Z"/><path class="cls-1" d="M646.78,570.79h5.8V606.1h-5.8Z"/><path class="cls-1" d="M689.22,570.74V606.1h-5.79L666,579.73V606.1h-5.79V570.74H666l17.43,26.32V570.74Z"/><path class="cls-1" d="M727.15,588.57c0,10.87-7.42,17.53-18.75,17.53H696.86V570.79H708.4C719.73,570.79,727.15,577.65,727.15,588.57ZM708.4,601.38c8.33,0,12.8-4.78,12.8-12.81s-4.47-13.06-12.8-13.06h-5.75v25.87Z"/><path class="cls-1" d="M732.86,570.79h5.79V593.3c0,5.48,3.1,8.08,8,8.08s8-2.6,8-8.08V570.79h5.79v22.4c0,9-6.51,13.27-13.87,13.27s-13.72-4.27-13.72-13.27Z"/><path class="cls-1" d="M779.62,606.46c-7.06,0-12.5-3.86-12.5-10.11h6.2c.26,2.89,2.29,5.23,6.3,5.23s6.36-2.19,6.36-5.18c0-8.54-18.76-3-18.76-16,0-6.2,4.94-10.06,12.15-10.06,6.76,0,11.54,3.55,12,9.6H785c-.2-2.39-2.29-4.57-6-4.67-3.35-.1-5.94,1.52-5.94,4.92,0,8,18.7,3,18.7,15.91C791.82,601.38,787.5,606.46,779.62,606.46Z"/><path class="cls-1" d="M796.86,570.79h24.65v4.72h-9.4V606.1h-5.8V575.51h-9.45Z"/><path class="cls-1" d="M839.56,570.79c8.39,0,12.5,4.82,12.5,10.57,0,4.16-2.23,8.64-8.18,10.11l8.74,14.63h-6.91L837.58,592h-4.42V606.1h-5.79V570.79Zm0,4.72h-6.4v11.84h6.4c4.52,0,6.56-2.49,6.56-6S844.08,575.51,839.56,575.51Z"/><path class="cls-1" d="M859.5,570.79h5.79V606.1H859.5Z"/><path class="cls-1" d="M894.21,598.89H879.43l-2.54,7.21h-6l12.65-35.36h6.71l12.65,35.36h-6.1Zm-7.36-21.14-5.8,16.41h11.54Z"/><path class="cls-1" d="M914.15,570.79v30.63h11.94v4.68H908.36V570.79Z"/><path class="cls-1" d="M960.26,570.33c7.37,0,13.72,3.71,16.41,10.62h-7c-1.88-3.76-5.23-5.54-9.45-5.54-7,0-12.1,5-12.1,13s5.08,13,12.1,13c4.22,0,7.57-1.78,9.45-5.54h7c-2.69,6.91-9,10.56-16.41,10.56a18,18,0,1,1,0-36.07Z"/><path class="cls-1" d="M985.79,606.46a3.71,3.71,0,1,1,3.65-3.71A3.66,3.66,0,0,1,985.79,606.46Z"/><path class="cls-1" d="M1017,598.89H1002.2l-2.54,7.21h-6l12.65-35.36H1013l12.65,35.36h-6.1Zm-7.37-21.14-5.79,16.41h11.54Z"/><path class="cls-1" d="M1033.48,606.46a3.71,3.71,0,1,1,3.65-3.71A3.66,3.66,0,0,1,1033.48,606.46Z"/><path class="cls-1" d="M427,548c5.77-.55,9.42-4.81,12.16-9.64,3.75-6.64,5.37-14,6.18-21.43,2.32-21.33,4.48-42.68,6.81-64,1.39-12.71,6.32-24.21,12.58-35.19,7.19-12.59,14-25.33,17.43-39.58,3-12.46,3.31-24.92-.41-37.44-.66,2.58-1.2,5.19-2,7.74-5.58,18.31-16.28,33.61-28.44,48-7.38,8.74-15,17.27-22.13,26.24-3.55,4.49-6.28,9.67-9.11,14.69-4.12,7.3-5.14,15.2-4.3,23.5,2.32,22.67,4.47,45.35,6.68,68,.08.89.11,1.79.18,2.85-8.95,1.82-13.49,7.56-15,16.35C414.3,548.1,420.71,548.57,427,548Z"/><path class="cls-1" d="M499.33,495.84c3.61-5,7-9.43,10.16-14.09a215.59,215.59,0,0,0,22.88-44.42,5,5,0,0,0-.5-4q-17.43-23.55-35.09-46.93c-.6-.79-1.31-1.5-2.48-2.83C490,400.88,480.81,415.3,473,430.36a62.32,62.32,0,0,0-7.45,28.83,5.72,5.72,0,0,0,1.39,3.67C477.54,473.76,488.22,484.56,499.33,495.84Z"/><path class="cls-1" d="M402.73,235.56a7.89,7.89,0,0,0,1.53-.39c15.78-8.68,32.16-9.1,49.09-4,7.41,2.25,15,3.56,22.68,1.08a51.49,51.49,0,0,0,5.58-2.51c-.06-.26-.13-.51-.2-.77-8.19-.11-15.06-4.1-22.24-7.23-14.79-6.46-29.57-7.38-44.13.66C409.72,225.37,405.81,229.78,402.73,235.56Z"/><path class="cls-1" d="M455.52,242.73c2.29,3.63,4,7.2,6.48,10.09,4.95,5.74,10.34,11.09,15.54,16.61a18.56,18.56,0,0,1,1.2,1.69l-11.66-3.27-.44.55c.65.75,1.28,1.53,2,2.25,13.11,13.7,18.27,30,15.66,48.72a7,7,0,0,0,1.32,5.59c6.57,9.09,10.27,19.43,12.7,30.29a6.09,6.09,0,0,0,1.22,2.7c10.61-30.23,2.73-57-15.61-81.81l.51-.7c3.54,2.53,7.28,4.81,10.54,7.65s6,6.21,9.55,9.93C502.51,267.65,476.31,240.65,455.52,242.73Z"/><path class="cls-1" d="M384.65,241.41c11.29-20.21,28.62-30.13,51.73-31.92A44.06,44.06,0,0,0,417.76,207c-8.75.66-16.9,3.12-23.8,8.82-7.5,6.21-10.72,14.24-9.89,23.91A8.45,8.45,0,0,0,384.65,241.41Z"/><path class="cls-1" d="M467.53,347.44l.14-.13a2.67,2.67,0,0,1,0-.32s0,0,0,.07S467.56,347.31,467.53,347.44Z"/><path class="cls-1" d="M431.46,376.76c-8.94,7.11-16.33,15.45-19.74,26.66-2.3,7.59-2.4,15.36-1.47,23.16a18.28,18.28,0,0,0,.77,2.59c10.45-18.65,26.39-32.31,39.27-48.47,7.94-10,14.48-20.64,17.24-33.26-3,2.72-6.25,5.91-9.79,8.73C449.05,363.12,440.17,369.83,431.46,376.76Z"/><path class="cls-1" d="M429.35,264.84c5.06,1.85,12.06-1.47,14.86-6.93a15.71,15.71,0,0,0-5.53-20.52,17.17,17.17,0,0,0-22.24,3.44,55.58,55.58,0,0,0-3.69,5.78l.67.84c1.81-.52,3.62-1,5.41-1.57,2.7-.85,5.33-2,8.08-2.57,5.19-1.11,9.46,2.5,9.53,7.83.05,4-1.85,7.17-4.17,10.18C431.35,262.51,430.35,263.65,429.35,264.84Z"/><path class="cls-1" d="M392.22,358.87c8.09-6.39,16.8-12,25.27-17.89,10.57-7.36,19.44-16.24,24.87-28.09,4.58-10,5.32-20.13-.06-30.07A26.82,26.82,0,0,0,436,275.5c.39,4,1.13,8,1.12,11.95,0,13.71-5.9,25-15.09,34.79-6.17,6.59-13.7,11.33-21.28,16.06-9.35,5.83-19.11,11.2-27.72,18-12.34,9.75-20.68,22.48-22.77,38.53a48.46,48.46,0,0,0,5.93,29.9c2.47,4.56,5.59,8.77,8.41,13.14l.59-.53c-.63-5.81-1.74-11.6-1.82-17.41C363,394.93,372.57,374.38,392.22,358.87Z"/><path class="cls-1" d="M388.33,321.37c-6.43,2.69-13,5.06-19.29,8.07a40.48,40.48,0,0,0-18.73,18c-.51,1-.93,2-1.76,3.77,1.28-.89,1.88-1.27,2.44-1.71,8.84-7,19.24-10.58,29.73-14.05,11.71-3.87,22.84-8.84,31.86-17.58C420,310.65,424.52,302,425,291.2c-2.33,3.38-4.31,6.66-6.68,9.63C410.41,310.68,399.74,316.59,388.33,321.37Z"/><path class="cls-1" d="M453.09,345.45c10-11.72,15.41-25.37,15.25-40.87a38.84,38.84,0,0,0-10.7-27.15c2.93,26.47-3.73,51.09-13.8,76.23C447.3,350.63,450.58,348.37,453.09,345.45Z"/><path class="cls-1" d="M425.53,362c4.81-6.67,9-13.68,11-21.81.16-.67.25-1.35.28-1.54-7.83,6.12-15.64,12.37-23.59,18.42-10.26,7.83-20.4,15.79-27.22,27-13.26,21.84-13.88,44.14-1.76,66.63,2,3.77,5,7,7.58,10.48l.68-.35c-.62-2.88-1.33-5.74-1.85-8.64-4-22.34,1.83-42.65,13.72-61.31C410.79,380.89,418.54,371.71,425.53,362Z"/><path class="cls-1" d="M515.68,516.63c27.51-32.74,45.61-70,53.83-112.09,4-20.41,5-41,4.35-61.69-.41-12.65-1.4-25.28-2-37.92-.14-3.07-1.16-5-4.33-5.87-16.16-4.54-32.29-9.22-48.43-13.84a8.91,8.91,0,0,0-1.37-.16c.49,5,.87,9.81,1.55,14.59.09.66,1.58,1.33,2.54,1.63,10.83,3.31,21.7,6.51,32.51,9.88a3.76,3.76,0,0,1,2.24,2.49c1.7,23,2.58,45.92.25,68.91q-8.35,82.23-67.55,139.79c-18.68,18.25-40.4,32.08-63.7,43.56a4.68,4.68,0,0,1-3.6,0c-37.87-18.54-68.75-43.66-91.67-76.13a52,52,0,0,1-13.5,7.44,245.87,245.87,0,0,0,46.87,50c17.65,14.3,37,25.92,57.36,35.75a6,6,0,0,0,4.46.31C459.85,566.9,491,546,515.68,516.63Z"/><path class="cls-1" d="M512.91,547.37c-4.23,3.8-4.73,8.63-1.39,12.8,3.53,4.39,8.59,4.08,12.43.65a7.74,7.74,0,0,0,2.91-6.07c4.15,4.34,4.61,7,2,9.34-2,1.84-4,1.95-5.75.63-1.63,1.41-2.46,2.1-4.14,3.46,2.72,2.84,7.56,3.69,12.52-.79,6.18-5.59,4.25-10.85-2.21-17.23C523.31,544.22,518.34,542.48,512.91,547.37Zm9.13,9.56c-2.52,2.27-4.95,1.71-6.52-.12a4.25,4.25,0,0,1,.44-6.33,4.21,4.21,0,0,1,6.38.28A4,4,0,0,1,522,556.93Z"/><path class="cls-1" d="M493.85,562.84c1,1.58,1.55,2.37,2.59,3.94,1.24-.81,1.86-1.23,3.09-2.07L512,582.8c2.06-1.42,3.07-2.14,5.08-3.62-6.34-8.59-9.51-12.88-15.84-21.47C498.33,559.84,496.86,560.87,493.85,562.84Z"/><path class="cls-1" d="M546.16,530.36c-6.83-5-12-6-16.65-.32-3.61,4.38-3.39,9.22.54,12.84,4.14,3.83,9.09,2.78,12.38-1.18,1.67-2,2.45-4.48,2-6.43,4.75,3.67,5.6,6.25,3.41,8.93-1.73,2.12-3.68,2.52-5.58,1.48-1.41,1.63-2.12,2.43-3.58,4,3.12,2.4,8,2.54,12.26-2.63C556.19,540.63,553.5,535.71,546.16,530.36Zm-6.2,7.78c-2.15,2.62-4.63,2.42-6.46.84a4.56,4.56,0,0,1,5.84-7A4,4,0,0,1,540,538.14Z"/><path class="cls-1" d="M575.7,484A277.23,277.23,0,0,0,601,410.69c4.15-21.19,5.76-43.73,4.93-68.88-.26-8-.74-16.08-1.21-23.85-.29-4.86-.58-9.72-.82-14.6-.84-17.13-11.44-30.61-27.69-35.18-11-3.09-22-6.26-33-9.42l-15.46-4.43c-1.29-.36-2.48-.61-3.51-.79a97.77,97.77,0,0,0-8-11.45l14.55-15.93-82.34-46.44-1.19-.43a75,75,0,0,0-25.68-4.46c-2.05,0-4.1.07-6.16.23-16.33,1.23-30.4,6.64-41.82,16.09a57.93,57.93,0,0,0-19.83,31c-.73.27-1.45.54-2.15.82A36.11,36.11,0,0,0,336.8,233.9c-4.39,2.07-14.51,6.9-14.51,6.9-1.29.62-2.56,1.27-3.8,1.92l-1.32.69a32.54,32.54,0,0,0-15.47,38.64l.51,1.59,6.42,10.73c2.08,13.17,10.83,21.51,13.89,24.44q1.56,1.5,3.23,2.87c.17,1.14.4,2.26.66,3.35a75,75,0,0,0-4.5,7.49c-.52,1-1,2-1.55,3.18a96.52,96.52,0,0,0-13.54-1,78.33,78.33,0,0,0-15.22,1.46,57,57,0,0,0-42.46,36.1h-33V557.92h100v-11a286.49,286.49,0,0,0,27.34,25.23c18.61,15.07,39.42,28.07,63.66,39.74a38.8,38.8,0,0,0,16.7,3.78,35.55,35.55,0,0,0,15.44-3.43,365.58,365.58,0,0,0,32.93-17.73l19.17,30.68,11.73-5.32c67.14-30.48,100.4-101.25,101.78-104.25l5.73-12.44ZM497,606.46l-20.22-32.35A341.22,341.22,0,0,1,432.94,599a21.13,21.13,0,0,1-9.12,2h0a24.18,24.18,0,0,1-10.33-2.34c-23.19-11.16-43.06-23.56-60.77-37.91a264.2,264.2,0,0,1-50.16-53.51l-1.14-1.63v37.66H230.79V387h29.77a42.27,42.27,0,0,1,33.88-36.38,64.34,64.34,0,0,1,12.38-1.17,102.17,102.17,0,0,1,22.08,2.84l4.58-9.86c.56-1.24,1-2.16,1.46-3.05a58.85,58.85,0,0,1,8.17-11.82A24.74,24.74,0,0,1,340,313.84a44.21,44.21,0,0,1-7.29-5.66c-2.63-2.51-9.36-8.93-9.77-18.59l-7.22-12.07a17.84,17.84,0,0,1,8.48-21.18l1.13-.59c1.09-.57,2.19-1.14,3.31-1.67l1.38-.65q8.26-3.94,16.54-7.86a21.59,21.59,0,0,1,10.4-8.86c3.43-1.36,6.67-2.42,9.85-3.35a43.05,43.05,0,0,1,16.12-30.88c9-7.47,20.32-11.76,33.56-12.76,1.68-.12,3.37-.19,5.05-.19a60.39,60.39,0,0,1,20.73,3.61l65.16,36.74-11.27,12.34A83.91,83.91,0,0,1,515,267.33l4.5.45a21.25,21.25,0,0,1,4.29.71L538,272.58q17.09,4.92,34.2,9.76c10.11,2.84,16.45,11,17,21.74.24,4.93.54,9.85.83,14.77.46,7.64.94,15.53,1.2,23.43.79,24-.74,45.49-4.67,65.59a261.55,261.55,0,0,1-30.79,81.9l35.75,19.67S559.94,577.89,497,606.46Z"/><path class="cls-1" d="M543,511.19c-2.52,4.14-2.45,9,2.48,12.6,1.2-1.75,1.79-2.64,2.93-4.42-2.35-1.56-3.05-3.68-1.73-5.86s3.3-2.4,5.36-1.21c4.25,2.45,4.86,10.82,5.14,19.47l3.14,2.15a156.92,156.92,0,0,0,11.06-18.26l-3.75-2c-2.34,4.42-3.59,6.59-6.22,10.82-.46-6-1.52-14.19-7-17.11C550.29,505.19,546,506.21,543,511.19Z"/><path class="cls-1" d="M341.57,455a43.33,43.33,0,0,0,1.19-10c0-25.05-17.54-40.61-45.77-40.61H248.16V525.85h35.89V485.21H297C324.79,485.21,337.82,470.52,341.57,455Zm-46.68,0H284.05V434.89h10.84c10.13,0,11.49,5.07,11.49,10S305,455,294.89,455Zm0-28.39H275.74V455H256.47V412.63H297c23.45,0,37.45,12.08,37.45,32.3a34.17,34.17,0,0,1-1.51,10H312.28a19.8,19.8,0,0,0,2.42-10C314.7,433.26,307.48,426.57,294.89,426.57Z"/><path class="cls-1" d="M297.68,390.26c5.55.11,9.62-2.72,11.95-8.73l24.1,7.69c1.22-5.66,2.43-11.25,3.73-17.23-13.08-2.77-26-7.06-39.68-4.38a24.89,24.89,0,0,0-20.11,22.28c-.08.78,0,1.56,0,2.78C284.35,389.94,291,390.13,297.68,390.26Z"/><path class="cls-1" d="M366.21,302.27c4.59-.71,9.13-1.81,13.65-2.91a3.32,3.32,0,0,1,4.24,1.82c.15.26.31.52.45.78-7.91,5.77-16.19,10.27-27.14,8.66.37,3.79-1.58,7.47,2.69,9.87,5.34,3,10.64,3.4,16.17.43,4.66-2.5,9.23-6.94,12.88-12.22,20.4-4.19,32.28-24,27.65-40.66a28.33,28.33,0,0,0-23.86-20.16c-10.38-1.28-20.14,1.22-29.65,5a4.19,4.19,0,0,0-2.28,2.55c-.49,2.28-1.89,3.42-3.81,4.32q-10.59,5-21.14,10c-1.34.63-2.65,1.35-4,2,.09.27.18.54.26.82,5.85.25,11.69.54,17.53.73,1.9.06,3.44.35,3.63,2.7-2.75,1.87-5.64,3.56-8.23,5.64-6.55,5.25-6.63,8.18-.61,13.93A24.37,24.37,0,0,0,366.21,302.27Zm24.69-39.48L373.37,273.1l-6-6.51C374.72,260.9,382.61,260.3,390.9,262.79Z"/></g></svg>