<?xml version="1.0" encoding="UTF-8" standalone="no"?>
<svg
   viewBox="0 0 1432.17 800"
   version="1.1"
   id="svg75"
   sodipodi:docname="IMAGOTIPO PISICA - SVG_ (1).svg"
   inkscape:version="1.4 (e7c3feb100, 2024-10-09)"
   xmlns:inkscape="http://www.inkscape.org/namespaces/inkscape"
   xmlns:sodipodi="http://sodipodi.sourceforge.net/DTD/sodipodi-0.dtd"
   xmlns="http://www.w3.org/2000/svg"
   xmlns:svg="http://www.w3.org/2000/svg">
  <sodipodi:namedview
     id="namedview75"
     pagecolor="#ffffff"
     bordercolor="#000000"
     borderopacity="0.25"
     inkscape:showpageshadow="2"
     inkscape:pageopacity="0.0"
     inkscape:pagecheckerboard="0"
     inkscape:deskcolor="#d1d1d1"
     inkscape:zoom="0.88980145"
     inkscape:cx="500.11157"
     inkscape:cy="341.64925"
     inkscape:window-width="1536"
     inkscape:window-height="840"
     inkscape:window-x="0"
     inkscape:window-y="0"
     inkscape:window-maximized="1"
     inkscape:current-layer="svg75" />
  <defs
     id="defs1">
    <style
       id="style1">.cls-1{fill:#ffb902;}</style>
  </defs>
  <g
     id="Logo">
    <path
       d="M281.15,437.44h-11v20.37h11c10.27,0,11.65-5.14,11.65-10.18S291.42,437.44,281.15,437.44Z"
       id="path50" />
    <path
       d="M545.91,493.14A265.54,265.54,0,0,0,577.16,410c4-20.4,5.53-42.17,4.73-66.57-.26-8-.74-16-1.21-23.78-.3-5-.6-10-.84-15-.54-10.94-7-19.19-17.24-22.07q-17.37-4.89-34.71-9.91l-14.47-4.15a21.42,21.42,0,0,0-4.36-.72l-4.57-.46a85.17,85.17,0,0,0-19.1-25.49l11.43-12.51-66.13-37.3a61.46,61.46,0,0,0-21-3.65c-1.71,0-3.42.06-5.13.19-13.43,1-24.89,5.37-34.06,12.95a43.72,43.72,0,0,0-16.36,31.34c-3.22.94-6.52,2-10,3.39a22,22,0,0,0-10.56,9q-8.4,4-16.79,8l-1.4.67c-1.13.54-2.24,1.11-3.36,1.7l-1.14.59a18.09,18.09,0,0,0-8.61,21.49L309.58,290c.42,9.8,7.25,16.31,9.91,18.86a45.39,45.39,0,0,0,7.4,5.74,25.21,25.21,0,0,0,3.19,13.89,59.78,59.78,0,0,0-8.29,12c-.48.92-.91,1.85-1.48,3.1l-4.65,10a103.9,103.9,0,0,0-22.41-2.88,65.52,65.52,0,0,0-12.57,1.19,42.88,42.88,0,0,0-34.38,36.92H216.09v158.6h71.68V509.17l1.15,1.65a268.3,268.3,0,0,0,50.91,54.32c18,14.56,38.15,27.14,61.68,38.47A24.62,24.62,0,0,0,412,606h0a21.29,21.29,0,0,0,9.25-2,344.53,344.53,0,0,0,44.51-25.21l20.52,32.83c63.87-29,95.91-98.46,95.91-98.46ZM378.35,455.06c.53,2.94,1.25,5.84,1.88,8.76l-.69.36c-2.59-3.53-5.64-6.82-7.7-10.63-12.3-22.83-11.67-45.47,1.79-67.63,6.92-11.4,17.21-19.48,27.63-27.42,8.07-6.15,16-12.48,23.94-18.7,0,.19-.12.89-.29,1.56-2,8.25-6.29,15.37-11.18,22.13-7.09,9.83-15,19.14-21.46,29.34C380.21,411.77,374.31,432.38,378.35,455.06Zm-25.89-15.12-.59.53c-2.87-4.43-6-8.7-8.54-13.33-5.13-9.44-7.43-19.6-6-30.34,2.13-16.29,10.59-29.21,23.12-39.11,8.74-6.91,18.64-12.36,28.13-18.28,7.69-4.8,15.33-9.61,21.6-16.29,9.32-10,15.29-21.4,15.32-35.32,0-4-.74-8.09-1.14-12.13a27,27,0,0,1,6.42,7.44c5.46,10.09,4.71,20.37.06,30.51-5.51,12-14.51,21.05-25.24,28.51-8.6,6-17.44,11.68-25.65,18.16-19.93,15.74-29.66,36.6-29.31,62C350.69,428.17,351.82,434.05,352.46,439.94ZM415.13,243c-2.79.59-5.46,1.75-8.19,2.6-1.82.58-3.67,1.07-5.5,1.6l-.68-.85a54.67,54.67,0,0,1,3.75-5.87A17.39,17.39,0,0,1,427.07,237a15.94,15.94,0,0,1,5.62,20.82c-2.85,5.54-9.94,8.91-15.08,7,1-1.22,2-2.36,3-3.58,2.36-3,4.29-6.3,4.23-10.33C424.73,245.55,420.4,241.88,415.13,243Zm-2,48.6c-.47,11-5,19.74-12.58,27.05-9.16,8.86-20.45,13.91-32.34,17.84-10.64,3.52-21.2,7.21-30.17,14.26-.57.45-1.18.83-2.48,1.74.85-1.82,1.27-2.85,1.78-3.83a41,41,0,0,1,19-18.24c6.37-3.06,13.05-5.47,19.58-8.2,11.58-4.85,22.4-10.85,30.41-20.85C408.8,298.37,410.81,295,413.17,291.61Zm33.15-14a39.37,39.37,0,0,1,10.86,27.55c.16,15.73-5.29,29.58-15.48,41.48-2.54,3-5.88,5.26-9.38,8.33C442.54,329.49,449.29,304.5,446.32,277.64Zm10.18,70.92-.14.13c-2.8,12.81-9.44,23.64-17.5,33.76-13.07,16.39-29.25,30.26-39.85,49.19a17.53,17.53,0,0,1-.78-2.63c-1-7.92-.85-15.8,1.49-23.5,3.45-11.39,11-19.85,20-27.07,8.84-7,17.85-13.83,26.67-20.89,3.59-2.87,6.88-6.1,9.94-8.86,0-.13.07-.26.1-.39s0,0,0-.07A3,3,0,0,0,456.5,348.56ZM410.84,535.75c-.07-1.08-.1-2-.19-2.89-2.24-23-4.42-46-6.77-69-.86-8.43.18-16.45,4.36-23.86,2.87-5.09,5.64-10.35,9.25-14.91,7.2-9.1,15-17.76,22.45-26.63,12.35-14.63,23.21-30.15,28.87-48.74.78-2.58,1.34-5.23,2-7.85,3.77,12.7,3.44,25.36.42,38-3.45,14.46-10.4,27.39-17.7,40.17-6.35,11.14-11.35,22.82-12.76,35.71-2.37,21.65-4.56,43.32-6.91,65-.82,7.6-2.46,15-6.28,21.76-2.78,4.9-6.48,9.22-12.33,9.78-6.41.61-12.92.14-19.66.14C397.14,543.43,401.76,537.6,410.84,535.75Zm51.09-102.9c7.91-15.29,17.24-29.92,21.6-47.53,1.18,1.35,1.91,2.07,2.51,2.87C498,404,509.87,419.88,521.66,435.82a5,5,0,0,1,.5,4.1A218.85,218.85,0,0,1,498.94,485c-3.16,4.72-6.64,9.23-10.31,14.3-11.28-11.46-22.12-22.42-32.85-33.48a5.77,5.77,0,0,1-1.41-3.73A63.23,63.23,0,0,1,461.93,432.85Zm31.95-139.39c-3.58-3.77-6.39-7.21-9.69-10.08s-7.11-5.2-10.7-7.77l-.52.72c18.62,25.18,26.62,52.34,15.85,83a6.14,6.14,0,0,1-1.24-2.75c-2.47-11-6.23-21.51-12.89-30.74a7.1,7.1,0,0,1-1.34-5.67c2.65-19-2.59-35.54-15.9-49.45-.7-.73-1.33-1.52-2-2.28l.45-.56,11.84,3.32a19.41,19.41,0,0,0-1.22-1.71c-5.28-5.61-10.75-11-15.77-16.86-2.53-2.93-4.26-6.56-6.58-10.24C465.27,240.31,491.86,267.71,493.88,293.46Zm-46-72.32c7.28,3.18,14.26,7.23,22.57,7.34.07.26.13.52.2.78a53,53,0,0,1-5.66,2.55c-7.79,2.52-15.5,1.18-23-1.09-17.18-5.21-33.82-4.78-49.82,4a8.4,8.4,0,0,1-1.56.39c3.13-5.87,7.09-10.34,12.5-13.33C417.86,213.65,432.86,214.59,447.88,221.14Zm-66.19-6c7-5.79,15.27-8.29,24.16-9a44.56,44.56,0,0,1,18.89,2.49c-23.45,1.82-41,11.88-52.5,32.4a8.31,8.31,0,0,1-.59-1.67C370.81,229.59,374.07,221.45,381.69,215.15ZM332.29,282c2.62-2.11,5.56-3.83,8.35-5.72-.2-2.4-1.76-2.69-3.69-2.75-5.93-.19-11.86-.49-17.79-.74-.08-.28-.17-.56-.26-.83,1.34-.69,2.67-1.42,4-2.06q10.71-5.12,21.45-10.18c1.95-.91,3.37-2.07,3.87-4.38a4.26,4.26,0,0,1,2.31-2.6c9.66-3.82,19.56-6.35,30.09-5.06a28.81,28.81,0,0,1,24.23,20.46c4.69,17-7.36,37-28.07,41.27-3.7,5.36-8.34,9.86-13.08,12.41-5.61,3-11,2.62-16.41-.44-4.33-2.44-2.35-6.17-2.73-10,11.12,1.63,19.52-2.94,27.55-8.79-.15-.26-.31-.53-.45-.79a3.37,3.37,0,0,0-4.31-1.85c-4.59,1.12-9.2,2.23-13.86,3a24.75,24.75,0,0,1-21.86-6.76C325.55,290.26,325.64,287.29,332.29,282ZM263.67,391.78a25.25,25.25,0,0,1,20.41-22.62c13.88-2.72,27,1.63,40.27,4.44-1.32,6.07-2.55,11.75-3.79,17.49l-24.46-7.81c-2.36,6.11-6.49,9-12.12,8.87-6.81-.13-13.53-.32-20.33,2.45C263.65,393.36,263.59,392.56,263.67,391.78Zm19.6,96.74H270.14v41.24H233.71V406.42h49.56c28.66,0,46.45,15.79,46.45,41.21a43.55,43.55,0,0,1-1.21,10.18C324.71,473.6,311.49,488.52,283.27,488.52ZM413.67,588a6,6,0,0,1-4.52-.31c-20.72-10-40.31-21.78-58.22-36.29a249.34,249.34,0,0,1-47.57-50.73,52.66,52.66,0,0,0,13.7-7.56c23.26,33,54.6,58.45,93,77.27a4.74,4.74,0,0,0,3.66,0c23.65-11.65,45.69-25.69,64.66-44.21Q538.35,467.68,547,384.34c2.37-23.34,1.47-46.64-.26-69.94a3.76,3.76,0,0,0-2.26-2.53c-11-3.42-22-6.67-33-10-1-.3-2.49-1-2.58-1.66-.69-4.85-1.08-9.74-1.58-14.8a9.07,9.07,0,0,1,1.4.16c16.38,4.69,32.75,9.44,49.15,14,3.21.9,4.25,2.84,4.4,6,.62,12.84,1.62,25.65,2,38.49.68,21-.37,41.89-4.42,62.61-8.35,42.69-26.71,80.54-54.64,113.77C480.14,550.25,448.56,571.43,413.67,588Zm87.8-.48L488.83,569.2c-1.24.86-1.87,1.28-3.13,2.11l-2.63-4c3.05-2,4.55-3,7.48-5.2l16.08,21.79C504.59,585.39,503.56,586.13,501.47,587.56Zm19.86-15.64c-5,4.55-10,3.68-12.72.81,1.71-1.38,2.55-2.08,4.21-3.51,1.75,1.33,3.77,1.22,5.83-.65,2.61-2.36,2.14-5.08-2.08-9.48.19,2-1,4.39-3,6.16-3.9,3.48-9,3.8-12.61-.66-3.4-4.23-2.89-9.13,1.4-13,5.52-5,10.56-3.19,16.67,2.84C525.63,560.91,527.6,566.25,521.33,571.92ZM541,551.3c-4.3,5.24-9.28,5.1-12.44,2.67,1.48-1.61,2.2-2.43,3.63-4.09,1.93,1.06,3.91.66,5.67-1.49,2.22-2.72,1.35-5.34-3.46-9.07.48,2-.31,4.49-2,6.53-3.34,4-8.36,5.08-12.56,1.2-4-3.68-4.22-8.59-.55-13,4.72-5.72,10-4.73,16.9.32C543.61,539.77,546.34,544.76,541,551.3Zm6.32-15.53c-.28-8.78-.91-17.27-5.22-19.76-2.09-1.21-4.06-1-5.44,1.23s-.63,4.36,1.76,5.94c-1.16,1.82-1.76,2.71-3,4.49-5-3.67-5.08-8.58-2.52-12.79,3.07-5.05,7.45-6.09,11.61-3.86,5.54,3,6.61,11.22,7.08,17.37,2.67-4.3,3.93-6.5,6.31-11l3.81,2A159,159,0,0,1,550.48,538Z"
       id="path51" />
    <path
       d="M319.75,457.81a34.42,34.42,0,0,0,1.53-10.18c0-20.52-14.21-32.77-38-32.77H242.15v42.95H261.7V429h19.45c12.77,0,20.09,6.79,20.09,18.63a20.13,20.13,0,0,1-2.45,10.18Z"
       id="path52" />
    <path
       d="M378.58,262.78c-8.4-2.53-16.42-1.92-23.89,3.85l6.11,6.61Z"
       id="path53" />
    <path
       d="M505.51,554.76a4.3,4.3,0,0,0-.44,6.42c1.59,1.87,4.05,2.43,6.61.12a4.06,4.06,0,0,0,.31-6.25A4.27,4.27,0,0,0,505.51,554.76Z"
       id="path54" />
    <path
       d="M522.79,536.68a4.3,4.3,0,0,0,.52,6.41c1.86,1.6,4.37,1.8,6.56-.86a4.08,4.08,0,0,0-.63-6.23A4.27,4.27,0,0,0,522.79,536.68Z"
       id="path55" />
    <path
       class="cls-1"
       d="M444.17,242.42c2.32,3.68,4.05,7.31,6.58,10.24,5,5.82,10.49,11.25,15.77,16.86a19.41,19.41,0,0,1,1.22,1.71l-11.84-3.32-.45.56c.67.76,1.3,1.55,2,2.28,13.31,13.91,18.55,30.43,15.9,49.45a7.1,7.1,0,0,0,1.34,5.67c6.66,9.23,10.42,19.73,12.89,30.74a6.14,6.14,0,0,0,1.24,2.75c10.77-30.69,2.77-57.85-15.85-83l.52-.72c3.59,2.57,7.39,4.89,10.7,7.77s6.11,6.31,9.69,10.08C491.86,267.71,465.27,240.31,444.17,242.42Z"
       id="path56" />
    <path
       class="cls-1"
       d="M488.63,499.31c3.67-5.07,7.15-9.58,10.31-14.3a218.85,218.85,0,0,0,23.22-45.09,5,5,0,0,0-.5-4.1C509.87,419.88,498,404,486,388.19c-.6-.8-1.33-1.52-2.51-2.87-4.36,17.61-13.69,32.24-21.6,47.53a63.23,63.23,0,0,0-7.56,29.25,5.77,5.77,0,0,0,1.41,3.73C466.51,476.89,477.35,487.85,488.63,499.31Z"
       id="path57" />
    <path
       class="cls-1"
       d="M390.59,235.14a8.4,8.4,0,0,0,1.56-.39c16-8.81,32.64-9.24,49.82-4,7.52,2.27,15.23,3.61,23,1.09a53,53,0,0,0,5.66-2.55c-.07-.26-.13-.52-.2-.78-8.31-.11-15.29-4.16-22.57-7.34-15-6.55-30-7.49-44.79.67C397.68,224.8,393.72,229.27,390.59,235.14Z"
       id="path58" />
    <path
       class="cls-1"
       d="M415.25,552.21c5.85-.56,9.55-4.88,12.33-9.78,3.82-6.74,5.46-14.16,6.28-21.76,2.35-21.64,4.54-43.31,6.91-65,1.41-12.89,6.41-24.57,12.76-35.71,7.3-12.78,14.25-25.71,17.7-40.17,3-12.64,3.35-25.3-.42-38-.66,2.62-1.22,5.27-2,7.85-5.66,18.59-16.52,34.11-28.87,48.74-7.49,8.87-15.25,17.53-22.45,26.63-3.61,4.56-6.38,9.82-9.25,14.91-4.18,7.41-5.22,15.43-4.36,23.86,2.35,23,4.53,46,6.77,69,.09.9.12,1.81.19,2.89-9.08,1.85-13.7,7.68-15.25,16.6C402.33,552.35,408.84,552.82,415.25,552.21Z"
       id="path59" />
    <path
       class="cls-1"
       d="M372.24,241.08c11.46-20.52,29.05-30.58,52.5-32.4a44.56,44.56,0,0,0-18.89-2.49c-8.89.67-17.16,3.17-24.16,9-7.62,6.3-10.88,14.44-10,24.26A8.31,8.31,0,0,0,372.24,241.08Z"
       id="path60" />
    <path
       class="cls-1"
       d="M353.52,302.85c4.66-.73,9.27-1.84,13.86-3a3.37,3.37,0,0,1,4.31,1.85c.14.26.3.53.45.79-8,5.85-16.43,10.42-27.55,8.79.38,3.85-1.6,7.58,2.73,10,5.43,3.06,10.8,3.45,16.41.44,4.74-2.55,9.38-7,13.08-12.41,20.71-4.26,32.76-24.31,28.07-41.27a28.81,28.81,0,0,0-24.23-20.46c-10.53-1.29-20.43,1.24-30.09,5.06a4.26,4.26,0,0,0-2.31,2.6c-.5,2.31-1.92,3.47-3.87,4.38q-10.74,5.06-21.45,10.18c-1.36.64-2.69,1.37-4,2.06.09.27.18.55.26.83,5.93.25,11.86.55,17.79.74,1.93.06,3.49.35,3.69,2.75-2.79,1.89-5.73,3.61-8.35,5.72-6.65,5.33-6.74,8.3-.63,14.13A24.75,24.75,0,0,0,353.52,302.85Zm25.06-40.07L360.8,273.24l-6.11-6.61C362.16,260.86,370.18,260.25,378.58,262.78Z"
       id="path61" />
    <path
       class="cls-1"
       d="M441.7,346.67c10.19-11.9,15.64-25.75,15.48-41.48a39.37,39.37,0,0,0-10.86-27.55c3,26.86-3.78,51.85-14,77.36C435.82,351.93,439.16,349.64,441.7,346.67Z"
       id="path62" />
    <path
       class="cls-1"
       d="M379.92,360.29c8.21-6.48,17.05-12.17,25.65-18.16,10.73-7.46,19.73-16.48,25.24-28.51,4.65-10.14,5.4-20.42-.06-30.51a27,27,0,0,0-6.42-7.44c.4,4,1.15,8.09,1.14,12.13,0,13.92-6,25.36-15.32,35.32-6.27,6.68-13.91,11.49-21.6,16.29-9.49,5.92-19.39,11.37-28.13,18.28-12.53,9.9-21,22.82-23.12,39.11-1.4,10.74.9,20.9,6,30.34,2.51,4.63,5.67,8.9,8.54,13.33l.59-.53c-.64-5.89-1.77-11.77-1.85-17.67C350.26,396.89,360,376,379.92,360.29Z"
       id="path63" />
    <path
       class="cls-1"
       d="M376,322.23c-6.53,2.73-13.21,5.14-19.58,8.2a41,41,0,0,0-19,18.24c-.51,1-.93,2-1.78,3.83,1.3-.91,1.91-1.29,2.48-1.74,9-7.05,19.53-10.74,30.17-14.26,11.89-3.93,23.18-9,32.34-17.84,7.56-7.31,12.11-16.06,12.58-27.05-2.36,3.43-4.37,6.76-6.78,9.77C398.38,311.38,387.56,317.38,376,322.23Z"
       id="path64" />
    <path
       class="cls-1"
       d="M413.73,363.49c4.89-6.76,9.18-13.88,11.18-22.13.17-.67.25-1.37.29-1.56-7.94,6.22-15.87,12.55-23.94,18.7-10.42,7.94-20.71,16-27.63,27.42-13.46,22.16-14.09,44.8-1.79,67.63,2.06,3.81,5.11,7.1,7.7,10.63l.69-.36c-.63-2.92-1.35-5.82-1.88-8.76-4-22.68,1.86-43.29,13.92-62.23C398.77,382.63,406.64,373.32,413.73,363.49Z"
       id="path65" />
    <path
       class="cls-1"
       d="M456.36,348.69l.14-.13a3,3,0,0,1,0-.33s0,0,0,.07S456.39,348.56,456.36,348.69Z"
       id="path66" />
    <path
       class="cls-1"
       d="M419.75,378.44c-9.07,7.22-16.58,15.68-20,27.07-2.34,7.7-2.44,15.58-1.49,23.5a17.53,17.53,0,0,0,.78,2.63c10.6-18.93,26.78-32.8,39.85-49.19,8.06-10.12,14.7-20.95,17.5-33.76-3.06,2.76-6.35,6-9.94,8.86C437.6,364.61,428.59,371.41,419.75,378.44Z"
       id="path67" />
    <path
       class="cls-1"
       d="M284,392.15c5.63.11,9.76-2.76,12.12-8.87l24.46,7.81c1.24-5.74,2.47-11.42,3.79-17.49-13.28-2.81-26.39-7.16-40.27-4.44a25.25,25.25,0,0,0-20.41,22.62c-.08.78,0,1.58,0,2.82C270.45,391.83,277.17,392,284,392.15Z"
       id="path68" />
    <path
       class="cls-1"
       d="M417.61,264.86c5.14,1.87,12.23-1.5,15.08-7A15.94,15.94,0,0,0,427.07,237a17.39,17.39,0,0,0-22.56,3.49,54.67,54.67,0,0,0-3.75,5.87l.68.85c1.83-.53,3.68-1,5.5-1.6,2.73-.85,5.4-2,8.19-2.6,5.27-1.13,9.6,2.54,9.67,7.94.06,4-1.87,7.28-4.23,10.33C419.64,262.5,418.62,263.64,417.61,264.86Z"
       id="path69" />
    <path
       class="cls-1"
       d="M505.22,520.41c27.93-33.23,46.29-71.08,54.64-113.77,4-20.72,5.1-41.61,4.42-62.61-.43-12.84-1.43-25.65-2-38.49-.15-3.11-1.19-5.05-4.4-6-16.4-4.61-32.77-9.36-49.15-14a9.07,9.07,0,0,0-1.4-.16c.5,5.06.89,9.95,1.58,14.8.09.67,1.61,1.36,2.58,1.66,11,3.36,22,6.61,33,10a3.76,3.76,0,0,1,2.26,2.53c1.73,23.3,2.63,46.6.26,69.94q-8.48,83.45-68.55,141.87c-19,18.52-41,32.56-64.66,44.21a4.74,4.74,0,0,1-3.66,0c-38.43-18.82-69.77-44.31-93-77.27a52.66,52.66,0,0,1-13.7,7.56,249.34,249.34,0,0,0,47.57,50.73c17.91,14.51,37.5,26.31,58.22,36.29a6,6,0,0,0,4.52.31C448.56,571.43,480.14,550.25,505.22,520.41Z"
       id="path70" />
    <path
       class="cls-1"
       d="M328.51,457.81a43.55,43.55,0,0,0,1.21-10.18c0-25.42-17.79-41.21-46.45-41.21H233.71V529.76h36.43V488.52h13.13C311.49,488.52,324.71,473.6,328.51,457.81Zm-47.36,0h-11V437.44h11c10.27,0,11.65,5.15,11.65,10.19S291.42,457.81,281.15,457.81Zm0-28.81H261.7v28.81H242.15V414.86h41.12c23.8,0,38,12.25,38,32.77a34.42,34.42,0,0,1-1.53,10.18h-21a20.13,20.13,0,0,0,2.45-10.18C301.24,435.79,293.92,429,281.15,429Z"
       id="path71" />
    <path
       class="cls-1"
       d="M483.07,567.3l2.63,4c1.26-.83,1.89-1.25,3.13-2.11l12.64,18.36c2.09-1.43,3.12-2.17,5.16-3.67L490.55,562.1C487.62,564.26,486.12,565.3,483.07,567.3Z"
       id="path72" />
    <path
       class="cls-1"
       d="M502.41,551.6c-4.29,3.86-4.8,8.76-1.4,13,3.58,4.46,8.71,4.14,12.61.66,2-1.77,3.14-4.13,3-6.16,4.22,4.4,4.69,7.12,2.08,9.48-2.06,1.87-4.08,2-5.83.65-1.66,1.43-2.5,2.13-4.21,3.51,2.77,2.87,7.68,3.74,12.72-.81,6.27-5.67,4.3-11-2.25-17.48C513,548.41,507.93,546.64,502.41,551.6Zm9.27,9.7c-2.56,2.31-5,1.75-6.61-.12a4.62,4.62,0,0,1,6.92-6.13A4.06,4.06,0,0,1,511.68,561.3Z"
       id="path73" />
    <path
       class="cls-1"
       d="M536.16,534.34c-6.93-5.05-12.18-6-16.9-.32-3.67,4.44-3.43,9.35.55,13,4.2,3.88,9.22,2.82,12.56-1.2,1.7-2,2.49-4.55,2-6.53,4.81,3.73,5.68,6.35,3.46,9.07-1.76,2.15-3.74,2.55-5.67,1.49-1.43,1.66-2.15,2.48-3.63,4.09,3.16,2.43,8.14,2.57,12.44-2.67C546.34,544.76,543.61,539.77,536.16,534.34Zm-6.29,7.89c-2.19,2.66-4.7,2.46-6.56.86a4.62,4.62,0,0,1,5.93-7.09A4.08,4.08,0,0,1,529.87,542.23Z"
       id="path74" />
    <path
       class="cls-1"
       d="M557.9,517.4c-2.38,4.49-3.64,6.69-6.31,11-.47-6.15-1.54-14.41-7.08-17.37-4.16-2.23-8.54-1.19-11.61,3.86-2.56,4.21-2.48,9.12,2.52,12.79,1.22-1.78,1.82-2.67,3-4.49-2.39-1.58-3.1-3.73-1.76-5.94s3.35-2.44,5.44-1.23c4.31,2.49,4.94,11,5.22,19.76l3.18,2.19a159,159,0,0,0,11.23-18.54Z"
       id="path75" />
  </g>
  <rect
     style="opacity:0;fill:#000000"
     id="rect76"
     width="367.49771"
     height="424.81387"
     x="214.65463"
     y="187.68231"
     ry="0" />
</svg>
