<svg xmlns="http://www.w3.org/2000/svg" viewBox="0 0 1432.17 800"><g id="Logo"><path d="M685,365.69H666.78v43.18h-29.3V288.56H685c29.48,0,44.21,16.63,44.21,38.74C729.16,347.18,715.63,365.69,685,365.69Zm-2.23-23.31c11.65,0,16.62-5.83,16.62-15.08s-5-15.09-16.62-15.09H666.78v30.17Z"/><path d="M748.71,288.56H778V408.87h-29.3Z"/><path d="M847.08,410.07c-25.88,0-46.1-12.85-47-37.19h31.19c.85,9.26,6.68,13.72,14.91,13.72,8.57,0,14-4.29,14-11.32,0-22.28-60.15-10.28-59.81-52.95,0-22.8,18.68-35.48,43.87-35.48,26.22,0,43.88,13,45.08,36H857.71c-.51-7.71-6-12.34-13.88-12.51-7-.17-12.34,3.43-12.34,11,0,20.9,59.47,11.48,59.47,51.76C891,393.28,875.19,410.07,847.08,410.07Z"/><path d="M913.24,288.56h29.31V408.87H913.24Z"/><path d="M1023.62,287.19c28.62,0,50.21,16.11,57.07,42.16h-32.22c-5-10.28-14.06-15.42-25.2-15.42-18,0-30.33,13.37-30.33,34.62s12.34,34.62,30.33,34.62c11.14,0,20.23-5.15,25.2-15.43h32.22c-6.86,26.05-28.45,42-57.07,42-35.48,0-60.5-25.19-60.5-61.18S988.14,287.19,1023.62,287.19Z"/><path d="M1177.87,387.62H1133l-7.2,21.25h-30.68l43.53-120.31h33.93l43.54,120.31h-31ZM1155.42,321l-14.74,44h29.65Z"/><path d="M650.66,483.15h-6.49v14.54h-5.88V461.85h12.37c8.51,0,12.69,4.85,12.69,10.68C663.35,477.63,660,483.15,650.66,483.15Zm0-4.8c4.59,0,6.66-2.22,6.66-5.82s-2.07-5.88-6.66-5.88h-6.49v11.7Z"/><path d="M681.36,461.85c8.51,0,12.69,4.9,12.69,10.73,0,4.23-2.27,8.77-8.3,10.26l8.87,14.85h-7l-8.25-14.33h-4.48v14.33H669V461.85Zm0,4.8h-6.49v12h6.49c4.59,0,6.66-2.53,6.66-6.08S686,466.65,681.36,466.65Z"/><path d="M718,498.05a18.33,18.33,0,1,1,18.3-18.36A17.94,17.94,0,0,1,718,498.05Zm0-5.1c7.11,0,12.27-5.16,12.27-13.26s-5.16-13.15-12.27-13.15-12.28,5-12.28,13.15S710.83,493,718,493Z"/><path d="M740.2,461.85h25v4.8h-9.54v31h-5.88v-31H740.2Z"/><path d="M791,466.6H777v10.51h12.38v4.8H777v11H791v4.8H771.15V461.8H791Z"/><path d="M814.54,461.39c7.48,0,13.92,3.76,16.66,10.77h-7.07c-1.9-3.81-5.31-5.62-9.59-5.62-7.12,0-12.27,5-12.27,13.15s5.15,13.2,12.27,13.2c4.28,0,7.69-1.8,9.59-5.61h7.07c-2.74,7-9.18,10.72-16.66,10.72a18.31,18.31,0,1,1,0-36.61Z"/><path d="M854.43,461.39c7.48,0,13.92,3.76,16.66,10.77H864c-1.91-3.81-5.31-5.62-9.59-5.62-7.12,0-12.28,5-12.28,13.15s5.16,13.2,12.28,13.2c4.28,0,7.68-1.8,9.59-5.61h7.07c-2.74,7-9.18,10.72-16.66,10.72a18.31,18.31,0,1,1,0-36.61Z"/><path d="M878,461.85h5.88v35.84H878Z"/><path d="M907.94,498.05a18.33,18.33,0,1,1,18.3-18.36A17.94,17.94,0,0,1,907.94,498.05Zm0-5.1c7.11,0,12.27-5.16,12.27-13.26s-5.16-13.15-12.27-13.15-12.28,5-12.28,13.15S900.82,493,907.94,493Zm5.31-43.79v5l-11.4,5.63v-4.34Z"/><path d="M961.49,461.8v35.89h-5.88l-17.69-26.77v26.77H932V461.8h5.88l17.69,26.71V461.8Z"/><path d="M982.66,461.85h5.88v35.84h-5.88Z"/><path d="M1025.73,461.8v35.89h-5.88l-17.69-26.77v26.77h-5.88V461.8h5.88l17.69,26.71V461.8Z"/><path d="M1031.63,461.85h25v4.8h-9.54v31h-5.88v-31h-9.59Z"/><path d="M1082.39,466.6h-13.92v10.51h12.37v4.8h-12.37v11h13.92v4.8h-19.8V461.8h19.8Z"/><path d="M1122.63,472.16h-7.06c-1.91-3.6-5.32-5.41-9.6-5.41-7.11,0-12.27,5.05-12.27,12.94s5.16,13,12.27,13c6.5,0,10.58-3.92,11.45-9.95H1104V478h19.75v4.6A17.67,17.67,0,0,1,1106,498a18.31,18.31,0,1,1,0-36.61C1113.45,461.39,1119.9,465.15,1122.63,472.16Z"/><path d="M1141.89,461.85c8.51,0,12.69,4.9,12.69,10.73,0,4.23-2.27,8.77-8.31,10.26l8.87,14.85h-7l-8.25-14.33h-4.49v14.33h-5.88V461.85Zm0,4.8h-6.5v12h6.5c4.59,0,6.65-2.53,6.65-6.08S1146.48,466.65,1141.89,466.65Z"/><path d="M1183.73,490.37h-15l-2.58,7.32H1160l12.84-35.89h6.81l12.84,35.89h-6.19Zm-7.48-21.46-5.88,16.66h11.71Z"/><path d="M1204,461.85V493h12.12v4.74h-18V461.85Z"/><path d="M669,536.66c0,11-7.53,17.79-19,17.79h-11.7V518.61H650C661.49,518.61,669,525.57,669,536.66Zm-19,13c8.46,0,13-4.84,13-13s-4.54-13.25-13-13.25h-5.82v26.24Z"/><path d="M694.67,523.36H680.75v10.51h12.38v4.8H680.75v11h13.92v4.8h-19.8V518.56h19.8Z"/><path d="M727.13,554.81c-7.17,0-12.68-3.92-12.68-10.26h6.29c.26,2.94,2.32,5.31,6.39,5.31s6.45-2.22,6.45-5.26c0-8.66-19-3-19-16.25,0-6.28,5-10.2,12.32-10.2,6.86,0,11.71,3.6,12.23,9.74h-6.5c-.21-2.42-2.32-4.64-6-4.74-3.41-.11-6,1.55-6,5,0,8.1,19,3,19,16.14C739.51,549.65,735.13,554.81,727.13,554.81Z"/><path d="M766.29,523.36H752.37v10.51h12.38v4.8H752.37v11h13.92v4.8h-19.8V518.56h19.8Z"/><path d="M806.53,528.92h-7.06c-1.91-3.6-5.31-5.41-9.59-5.41-7.12,0-12.28,5-12.28,12.94s5.16,13,12.28,13c6.49,0,10.57-3.92,11.44-10H787.86v-4.7h19.76v4.6a17.68,17.68,0,0,1-17.74,15.36,18.31,18.31,0,1,1,0-36.61C797.35,518.15,803.8,521.91,806.53,528.92Z"/><path d="M813.36,518.61h5.88v22.85c0,5.56,3.15,8.19,8.1,8.19s8.15-2.63,8.15-8.19V518.61h5.87v22.74c0,9.13-6.6,13.46-14.07,13.46s-13.93-4.33-13.93-13.46Z"/><path d="M861.4,518.61c8.5,0,12.68,4.9,12.68,10.73,0,4.22-2.27,8.77-8.3,10.26l8.87,14.85h-7l-8.25-14.33H854.9v14.33H849V518.61Zm0,4.8h-6.5v12h6.5c4.58,0,6.65-2.53,6.65-6.08S866,523.41,861.4,523.41Z"/><path d="M881.63,518.61h5.88v35.84h-5.88Z"/><path d="M926,536.66c0,11-7.53,17.79-19,17.79H895.25V518.61H907C918.46,518.61,926,525.57,926,536.66Zm-19,13c8.45,0,13-4.84,13-13s-4.54-13.25-13-13.25h-5.83v26.24Z"/><path d="M953.44,547.13h-15l-2.57,7.32h-6.14l12.84-35.89h6.81l12.84,35.89H956ZM946,525.67l-5.88,16.66h11.7Z"/><path d="M998.54,536.66c0,11-7.54,17.79-19,17.79H967.8V518.61h11.71C991,518.61,998.54,525.57,998.54,536.66Zm-19,13c8.45,0,13-4.84,13-13s-4.54-13.25-13-13.25h-5.83v26.24Z"/><path d="M638.29,575.37h5.88v35.84h-5.88Z"/><path d="M681.36,575.32v35.89h-5.88l-17.69-26.77v26.77h-5.88V575.32h5.88L675.48,602V575.32Z"/><path d="M719.85,593.42c0,11-7.53,17.79-19,17.79H689.11V575.37h11.71C712.32,575.37,719.85,582.33,719.85,593.42Zm-19,13c8.45,0,13-4.84,13-13s-4.54-13.25-13-13.25H695v26.24Z"/><path d="M725.65,575.37h5.87v22.85c0,5.56,3.15,8.19,8.1,8.19s8.15-2.63,8.15-8.19V575.37h5.88v22.74c0,9.13-6.6,13.46-14.08,13.46s-13.92-4.33-13.92-13.46Z"/><path d="M773.11,611.57c-7.17,0-12.69-3.92-12.69-10.26h6.29c.26,2.94,2.32,5.31,6.4,5.31s6.45-2.22,6.45-5.26c0-8.66-19-3-19-16.25,0-6.28,5-10.2,12.32-10.2,6.86,0,11.71,3.6,12.22,9.74h-6.49c-.21-2.42-2.32-4.64-6-4.74-3.4-.11-6,1.55-6,5,0,8.1,19,3,19,16.14C785.49,606.41,781.1,611.57,773.11,611.57Z"/><path d="M790.61,575.37h25v4.8h-9.54v31H800.2v-31h-9.59Z"/><path d="M833.94,575.37c8.51,0,12.69,4.9,12.69,10.73,0,4.22-2.27,8.77-8.3,10.26l8.87,14.85h-7l-8.25-14.33h-4.48v14.33h-5.88V575.37Zm0,4.8h-6.49v12h6.49c4.59,0,6.66-2.53,6.66-6.08S838.53,580.17,833.94,580.17Z"/><path d="M854.18,575.37h5.88v35.84h-5.88Z"/><path d="M889.41,603.89h-15l-2.58,7.32h-6.13l12.84-35.89h6.81l12.84,35.89H892Zm-7.48-21.46-5.88,16.66h11.71Z"/><path d="M909.64,575.37v31.1h12.12v4.74h-18V575.37Z"/><path d="M956.44,574.91c7.48,0,13.92,3.76,16.66,10.77H966c-1.91-3.81-5.31-5.62-9.59-5.62-7.12,0-12.28,5.05-12.28,13.15s5.16,13.2,12.28,13.2c4.28,0,7.68-1.8,9.59-5.61h7.07c-2.74,7-9.18,10.72-16.66,10.72a18.31,18.31,0,1,1,0-36.61Z"/><path d="M982.35,611.57a3.77,3.77,0,1,1,3.71-3.76A3.71,3.71,0,0,1,982.35,611.57Z"/><path d="M1014,603.89H999l-2.58,7.32H990.3l12.84-35.89H1010l12.84,35.89h-6.19Zm-7.48-21.46-5.88,16.66h11.71Z"/><path d="M1030.75,611.57a3.77,3.77,0,1,1,3.71-3.76A3.71,3.71,0,0,1,1030.75,611.57Z"/><path d="M281.15,437.44h-11v20.37h11c10.27,0,11.65-5.14,11.65-10.18S291.42,437.44,281.15,437.44Z"/><path d="M545.91,493.14A265.54,265.54,0,0,0,577.16,410c4-20.4,5.53-42.17,4.73-66.57-.26-8-.74-16-1.21-23.78-.3-5-.6-10-.84-15-.54-10.94-7-19.19-17.24-22.07q-17.37-4.89-34.71-9.91l-14.47-4.15a21.42,21.42,0,0,0-4.36-.72l-4.57-.46a85.17,85.17,0,0,0-19.1-25.49l11.43-12.51-66.13-37.3a61.46,61.46,0,0,0-21-3.65c-1.71,0-3.42.06-5.13.19-13.43,1-24.89,5.37-34.06,12.95a43.72,43.72,0,0,0-16.36,31.34c-3.22.94-6.52,2-10,3.39a22,22,0,0,0-10.56,9q-8.4,4-16.79,8l-1.4.67c-1.13.54-2.24,1.11-3.36,1.7l-1.14.59a18.09,18.09,0,0,0-8.61,21.49L309.58,290c.42,9.8,7.25,16.31,9.91,18.86a45.39,45.39,0,0,0,7.4,5.74,25.21,25.21,0,0,0,3.19,13.89,59.78,59.78,0,0,0-8.29,12c-.48.92-.91,1.85-1.48,3.1l-4.65,10a103.9,103.9,0,0,0-22.41-2.88,65.52,65.52,0,0,0-12.57,1.19,42.88,42.88,0,0,0-34.38,36.92H216.09v158.6h71.68V509.17l1.15,1.65a268.3,268.3,0,0,0,50.91,54.32c18,14.56,38.15,27.14,61.68,38.47A24.62,24.62,0,0,0,412,606h0a21.29,21.29,0,0,0,9.25-2,344.53,344.53,0,0,0,44.51-25.21l20.52,32.83c63.87-29,95.91-98.46,95.91-98.46ZM378.35,455.06c.53,2.94,1.25,5.84,1.88,8.76l-.69.36c-2.59-3.53-5.64-6.82-7.7-10.63-12.3-22.83-11.67-45.47,1.79-67.63,6.92-11.4,17.21-19.48,27.63-27.42,8.07-6.15,16-12.48,23.94-18.7,0,.19-.12.89-.29,1.56-2,8.25-6.29,15.37-11.18,22.13-7.09,9.83-15,19.14-21.46,29.34C380.21,411.77,374.31,432.38,378.35,455.06Zm-25.89-15.12-.59.53c-2.87-4.43-6-8.7-8.54-13.33-5.13-9.44-7.43-19.6-6-30.34,2.13-16.29,10.59-29.21,23.12-39.11,8.74-6.91,18.64-12.36,28.13-18.28,7.69-4.8,15.33-9.61,21.6-16.29,9.32-10,15.29-21.4,15.32-35.32,0-4-.74-8.09-1.14-12.13a27,27,0,0,1,6.42,7.44c5.46,10.09,4.71,20.37.06,30.51-5.51,12-14.51,21.05-25.24,28.51-8.6,6-17.44,11.68-25.65,18.16-19.93,15.74-29.66,36.6-29.31,62C350.69,428.17,351.82,434.05,352.46,439.94ZM415.13,243c-2.79.59-5.46,1.75-8.19,2.6-1.82.58-3.67,1.07-5.5,1.6l-.68-.85a54.67,54.67,0,0,1,3.75-5.87A17.39,17.39,0,0,1,427.07,237a15.94,15.94,0,0,1,5.62,20.82c-2.85,5.54-9.94,8.91-15.08,7,1-1.22,2-2.36,3-3.58,2.36-3,4.29-6.3,4.23-10.33C424.73,245.55,420.4,241.88,415.13,243Zm-2,48.6c-.47,11-5,19.74-12.58,27.05-9.16,8.86-20.45,13.91-32.34,17.84-10.64,3.52-21.2,7.21-30.17,14.26-.57.45-1.18.83-2.48,1.74.85-1.82,1.27-2.85,1.78-3.83a41,41,0,0,1,19-18.24c6.37-3.06,13.05-5.47,19.58-8.2,11.58-4.85,22.4-10.85,30.41-20.85C408.8,298.37,410.81,295,413.17,291.61Zm33.15-14a39.37,39.37,0,0,1,10.86,27.55c.16,15.73-5.29,29.58-15.48,41.48-2.54,3-5.88,5.26-9.38,8.33C442.54,329.49,449.29,304.5,446.32,277.64Zm10.18,70.92-.14.13c-2.8,12.81-9.44,23.64-17.5,33.76-13.07,16.39-29.25,30.26-39.85,49.19a17.53,17.53,0,0,1-.78-2.63c-1-7.92-.85-15.8,1.49-23.5,3.45-11.39,11-19.85,20-27.07,8.84-7,17.85-13.83,26.67-20.89,3.59-2.87,6.88-6.1,9.94-8.86,0-.13.07-.26.1-.39s0,0,0-.07A3,3,0,0,0,456.5,348.56ZM410.84,535.75c-.07-1.08-.1-2-.19-2.89-2.24-23-4.42-46-6.77-69-.86-8.43.18-16.45,4.36-23.86,2.87-5.09,5.64-10.35,9.25-14.91,7.2-9.1,15-17.76,22.45-26.63,12.35-14.63,23.21-30.15,28.87-48.74.78-2.58,1.34-5.23,2-7.85,3.77,12.7,3.44,25.36.42,38-3.45,14.46-10.4,27.39-17.7,40.17-6.35,11.14-11.35,22.82-12.76,35.71-2.37,21.65-4.56,43.32-6.91,65-.82,7.6-2.46,15-6.28,21.76-2.78,4.9-6.48,9.22-12.33,9.78-6.41.61-12.92.14-19.66.14C397.14,543.43,401.76,537.6,410.84,535.75Zm51.09-102.9c7.91-15.29,17.24-29.92,21.6-47.53,1.18,1.35,1.91,2.07,2.51,2.87C498,404,509.87,419.88,521.66,435.82a5,5,0,0,1,.5,4.1A218.85,218.85,0,0,1,498.94,485c-3.16,4.72-6.64,9.23-10.31,14.3-11.28-11.46-22.12-22.42-32.85-33.48a5.77,5.77,0,0,1-1.41-3.73A63.23,63.23,0,0,1,461.93,432.85Zm31.95-139.39c-3.58-3.77-6.39-7.21-9.69-10.08s-7.11-5.2-10.7-7.77l-.52.72c18.62,25.18,26.62,52.34,15.85,83a6.14,6.14,0,0,1-1.24-2.75c-2.47-11-6.23-21.51-12.89-30.74a7.1,7.1,0,0,1-1.34-5.67c2.65-19-2.59-35.54-15.9-49.45-.7-.73-1.33-1.52-2-2.28l.45-.56,11.84,3.32a19.41,19.41,0,0,0-1.22-1.71c-5.28-5.61-10.75-11-15.77-16.86-2.53-2.93-4.26-6.56-6.58-10.24C465.27,240.31,491.86,267.71,493.88,293.46Zm-46-72.32c7.28,3.18,14.26,7.23,22.57,7.34.07.26.13.52.2.78a53,53,0,0,1-5.66,2.55c-7.79,2.52-15.5,1.18-23-1.09-17.18-5.21-33.82-4.78-49.82,4a8.4,8.4,0,0,1-1.56.39c3.13-5.87,7.09-10.34,12.5-13.33C417.86,213.65,432.86,214.59,447.88,221.14Zm-66.19-6c7-5.79,15.27-8.29,24.16-9a44.56,44.56,0,0,1,18.89,2.49c-23.45,1.82-41,11.88-52.5,32.4a8.31,8.31,0,0,1-.59-1.67C370.81,229.59,374.07,221.45,381.69,215.15ZM332.29,282c2.62-2.11,5.56-3.83,8.35-5.72-.2-2.4-1.76-2.69-3.69-2.75-5.93-.19-11.86-.49-17.79-.74-.08-.28-.17-.56-.26-.83,1.34-.69,2.67-1.42,4-2.06q10.71-5.12,21.45-10.18c1.95-.91,3.37-2.07,3.87-4.38a4.26,4.26,0,0,1,2.31-2.6c9.66-3.82,19.56-6.35,30.09-5.06a28.81,28.81,0,0,1,24.23,20.46c4.69,17-7.36,37-28.07,41.27-3.7,5.36-8.34,9.86-13.08,12.41-5.61,3-11,2.62-16.41-.44-4.33-2.44-2.35-6.17-2.73-10,11.12,1.63,19.52-2.94,27.55-8.79-.15-.26-.31-.53-.45-.79a3.37,3.37,0,0,0-4.31-1.85c-4.59,1.12-9.2,2.23-13.86,3a24.75,24.75,0,0,1-21.86-6.76C325.55,290.26,325.64,287.29,332.29,282ZM263.67,391.78a25.25,25.25,0,0,1,20.41-22.62c13.88-2.72,27,1.63,40.27,4.44-1.32,6.07-2.55,11.75-3.79,17.49l-24.46-7.81c-2.36,6.11-6.49,9-12.12,8.87-6.81-.13-13.53-.32-20.33,2.45C263.65,393.36,263.59,392.56,263.67,391.78Zm19.6,96.74H270.14v41.24H233.71V406.42h49.56c28.66,0,46.45,15.79,46.45,41.21a43.55,43.55,0,0,1-1.21,10.18C324.71,473.6,311.49,488.52,283.27,488.52ZM413.67,588a6,6,0,0,1-4.52-.31c-20.72-10-40.31-21.78-58.22-36.29a249.34,249.34,0,0,1-47.57-50.73,52.66,52.66,0,0,0,13.7-7.56c23.26,33,54.6,58.45,93,77.27a4.74,4.74,0,0,0,3.66,0c23.65-11.65,45.69-25.69,64.66-44.21Q538.35,467.68,547,384.34c2.37-23.34,1.47-46.64-.26-69.94a3.76,3.76,0,0,0-2.26-2.53c-11-3.42-22-6.67-33-10-1-.3-2.49-1-2.58-1.66-.69-4.85-1.08-9.74-1.58-14.8a9.07,9.07,0,0,1,1.4.16c16.38,4.69,32.75,9.44,49.15,14,3.21.9,4.25,2.84,4.4,6,.62,12.84,1.62,25.65,2,38.49.68,21-.37,41.89-4.42,62.61-8.35,42.69-26.71,80.54-54.64,113.77C480.14,550.25,448.56,571.43,413.67,588Zm87.8-.48L488.83,569.2c-1.24.86-1.87,1.28-3.13,2.11l-2.63-4c3.05-2,4.55-3,7.48-5.2l16.08,21.79C504.59,585.39,503.56,586.13,501.47,587.56Zm19.86-15.64c-5,4.55-10,3.68-12.72.81,1.71-1.38,2.55-2.08,4.21-3.51,1.75,1.33,3.77,1.22,5.83-.65,2.61-2.36,2.14-5.08-2.08-9.48.19,2-1,4.39-3,6.16-3.9,3.48-9,3.8-12.61-.66-3.4-4.23-2.89-9.13,1.4-13,5.52-5,10.56-3.19,16.67,2.84C525.63,560.91,527.6,566.25,521.33,571.92ZM541,551.3c-4.3,5.24-9.28,5.1-12.44,2.67,1.48-1.61,2.2-2.43,3.63-4.09,1.93,1.06,3.91.66,5.67-1.49,2.22-2.72,1.35-5.34-3.46-9.07.48,2-.31,4.49-2,6.53-3.34,4-8.36,5.08-12.56,1.2-4-3.68-4.22-8.59-.55-13,4.72-5.72,10-4.73,16.9.32C543.61,539.77,546.34,544.76,541,551.3Zm6.32-15.53c-.28-8.78-.91-17.27-5.22-19.76-2.09-1.21-4.06-1-5.44,1.23s-.63,4.36,1.76,5.94c-1.16,1.82-1.76,2.71-3,4.49-5-3.67-5.08-8.58-2.52-12.79,3.07-5.05,7.45-6.09,11.61-3.86,5.54,3,6.61,11.22,7.08,17.37,2.67-4.3,3.93-6.5,6.31-11l3.81,2A159,159,0,0,1,550.48,538Z"/><path d="M319.75,457.81a34.42,34.42,0,0,0,1.53-10.18c0-20.52-14.21-32.77-38-32.77H242.15v42.95H261.7V429h19.45c12.77,0,20.09,6.79,20.09,18.63a20.13,20.13,0,0,1-2.45,10.18Z"/><path d="M378.58,262.78c-8.4-2.53-16.42-1.92-23.89,3.85l6.11,6.61Z"/><path d="M505.51,554.76a4.3,4.3,0,0,0-.44,6.42c1.59,1.87,4.05,2.43,6.61.12a4.06,4.06,0,0,0,.31-6.25A4.27,4.27,0,0,0,505.51,554.76Z"/><path d="M522.79,536.68a4.3,4.3,0,0,0,.52,6.41c1.86,1.6,4.37,1.8,6.56-.86a4.08,4.08,0,0,0-.63-6.23A4.27,4.27,0,0,0,522.79,536.68Z"/></g></svg>