<svg xmlns="http://www.w3.org/2000/svg" viewBox="0 0 800 800"><defs><style>.cls-1{fill:#fff;}</style></defs><g id="FONDOS"><rect x="-14.81" y="-14.43" width="833.57" height="833.57"/></g><g id="Logo"><path class="cls-1" d="M417.33,587.53c7.32-.7,11.94-6.1,15.41-12.22,4.76-8.41,6.81-17.68,7.84-27.16,2.94-27,5.67-54.09,8.63-81.12,1.76-16.1,8-30.69,15.94-44.59,9.11-16,17.78-32.11,22.09-50.17,3.77-15.79,4.19-31.59-.53-47.45-.82,3.27-1.51,6.58-2.49,9.81-7.07,23.2-20.62,42.59-36,60.86-9.36,11.08-19.05,21.89-28.05,33.26-4.5,5.69-8,12.25-11.54,18.61-5.23,9.25-6.52,19.26-5.45,29.79,2.93,28.73,5.66,57.47,8.46,86.21.11,1.13.15,2.27.23,3.61-11.34,2.32-17.1,9.59-19,20.73C401.2,587.7,409.33,588.29,417.33,587.53Z"/><path class="cls-1" d="M509,521.47c4.58-6.33,8.93-12,12.88-17.86a273.62,273.62,0,0,0,29-56.3,6.27,6.27,0,0,0-.62-5.12q-22.1-29.85-44.48-59.47c-.76-1-1.66-1.91-3.14-3.59-5.45,22-17.1,40.26-27,59.35-5.92,11.45-9.42,23.57-9.44,36.53a7.22,7.22,0,0,0,1.76,4.66C481.35,493.48,494.89,507.16,509,521.47Z"/><path class="cls-1" d="M386.54,191.6a10,10,0,0,0,1.95-.5c20-11,40.76-11.53,62.21-5,9.39,2.84,19,4.51,28.75,1.37a66.6,66.6,0,0,0,7.07-3.19l-.25-1c-10.38-.14-19.09-5.2-28.19-9.17-18.75-8.18-37.48-9.35-55.93.84C395.4,178.68,390.45,184.26,386.54,191.6Z"/><path class="cls-1" d="M453.45,200.68c2.9,4.6,5.06,9.13,8.22,12.79,6.27,7.27,13.1,14.05,19.69,21.05a23.67,23.67,0,0,1,1.52,2.14l-14.77-4.14-.57.7c.83.95,1.63,1.93,2.5,2.84,16.62,17.37,23.16,38,19.85,61.76a8.87,8.87,0,0,0,1.67,7.07c8.33,11.53,13,24.63,16.1,38.39a7.72,7.72,0,0,0,1.54,3.43c13.45-38.32,3.46-72.24-19.78-103.68l.65-.9c4.48,3.21,9.22,6.11,13.36,9.7s7.63,7.88,12.1,12.59C513,232.26,479.8,198.05,453.45,200.68Z"/><path class="cls-1" d="M363.63,199c14.32-25.62,36.28-38.19,65.56-40.46a55.73,55.73,0,0,0-23.59-3.1c-11.1.83-21.42,4-30.16,11.18-9.52,7.87-13.59,18-12.54,30.29A10.77,10.77,0,0,0,363.63,199Z"/><path class="cls-1" d="M468.68,333.38l.17-.16c0-.19,0-.32,0-.4s0,.05,0,.08S468.71,333.22,468.68,333.38Z"/><path class="cls-1" d="M423,370.54c-11.33,9-20.7,19.58-25,33.8-2.91,9.62-3,19.46-1.86,29.35a22.47,22.47,0,0,0,1,3.27c13.25-23.63,33.44-40.95,49.77-61.42,10.06-12.63,18.36-26.15,21.86-42.16-3.83,3.45-7.93,7.49-12.41,11.07C445.25,353.26,434,361.76,423,370.54Z"/><path class="cls-1" d="M420.29,228.71c6.41,2.33,15.27-1.87,18.83-8.8a19.89,19.89,0,0,0-7-26,21.72,21.72,0,0,0-28.17,4.35,68.54,68.54,0,0,0-4.68,7.33l.84,1.06c2.29-.66,4.59-1.27,6.87-2,3.41-1.07,6.75-2.51,10.23-3.25,6.58-1.41,12,3.17,12.08,9.91.07,5-2.34,9.1-5.28,12.91C422.82,225.75,421.55,227.19,420.29,228.71Z"/><path class="cls-1" d="M373.22,347.88c10.26-8.1,21.29-15.21,32-22.68,13.4-9.32,24.63-20.58,31.51-35.61,5.81-12.66,6.74-25.5-.08-38.1a33.69,33.69,0,0,0-8-9.28c.5,5,1.44,10.09,1.43,15.14,0,17.39-7.49,31.67-19.13,44.1-7.82,8.35-17.36,14.36-27,20.35-11.86,7.39-24.22,14.2-35.13,22.82C333.23,357,322.66,373.12,320,393.46c-1.75,13.42,1.12,26.11,7.51,37.89,3.14,5.78,7.09,11.12,10.67,16.65.25-.22.5-.44.74-.67-.8-7.35-2.21-14.7-2.31-22.06C336.18,393.58,348.33,367.53,373.22,347.88Z"/><path class="cls-1" d="M368.3,300.34c-8.15,3.41-16.49,6.43-24.45,10.24a51.33,51.33,0,0,0-23.75,22.78c-.64,1.23-1.17,2.51-2.22,4.78,1.62-1.13,2.39-1.61,3.09-2.17,11.21-8.81,24.39-13.41,37.68-17.8,14.84-4.91,29-11.21,40.39-22.28,9.43-9.13,15.12-20.06,15.7-33.78-2.95,4.29-5.45,8.45-8.46,12.2C396.27,286.8,382.76,294.29,368.3,300.34Z"/><path class="cls-1" d="M450.37,330.86C463.1,316,469.9,298.71,469.7,279.07c-.13-13.24-4.61-25-13.57-34.41,3.72,33.54-4.71,64.75-17.48,96.61C443,337.43,447.19,334.57,450.37,330.86Z"/><path class="cls-1" d="M415.44,351.87c6.1-8.44,11.47-17.33,14-27.63.2-.85.31-1.72.35-1.95-9.92,7.76-19.81,15.67-29.89,23.34-13,9.92-25.86,20-34.5,34.25-16.81,27.68-17.6,55.94-2.23,84.45,2.57,4.76,6.37,8.87,9.6,13.28l.87-.46c-.79-3.64-1.69-7.27-2.35-10.94-5.05-28.31,2.32-54.06,17.39-77.7C396.76,375.78,406.58,364.14,415.44,351.87Z"/><path class="cls-1" d="M529.69,547.82c34.88-41.5,57.8-88.76,68.23-142.07,5.05-25.87,6.37-51.95,5.51-78.18-.52-16-1.77-32-2.55-48.06-.19-3.89-1.48-6.31-5.49-7.44-20.49-5.76-40.93-11.69-61.38-17.55a13.25,13.25,0,0,0-1.75-.19c.63,6.31,1.11,12.43,2,18.48.12.84,2,1.7,3.23,2.07,13.72,4.2,27.49,8.25,41.2,12.53a4.72,4.72,0,0,1,2.83,3.16c2.16,29.09,3.28,58.19.32,87.33Q571.22,482.11,496.2,555.07c-23.68,23.12-51.2,40.65-80.74,55.19a5.87,5.87,0,0,1-4.56,0c-48-23.5-87.13-55.33-116.18-96.49a66,66,0,0,1-17.1,9.44A311.26,311.26,0,0,0,337,586.57c22.37,18.12,46.83,32.85,72.7,45.31a7.5,7.5,0,0,0,5.65.39C458.94,611.53,498.37,585.09,529.69,547.82Z"/><path class="cls-1" d="M526.18,586.77c-5.35,4.82-6,10.93-1.75,16.22,4.47,5.57,10.88,5.17,15.75.83,2.48-2.21,3.92-5.16,3.69-7.7,5.25,5.5,5.84,8.9,2.59,11.84-2.58,2.34-5.09,2.47-7.28.81-2.08,1.78-3.13,2.66-5.25,4.38,3.45,3.59,9.58,4.68,15.87-1,7.83-7.08,5.38-13.74-2.81-21.83C539.37,582.78,533.07,580.58,526.18,586.77Zm11.58,12.12c-3.2,2.88-6.27,2.17-8.26-.16a5.37,5.37,0,0,1,.55-8c2.53-2.29,5.53-2.34,8.09.35C540.41,593.46,540.38,596.51,537.76,598.89Z"/><path class="cls-1" d="M502,606.38l3.28,5c1.58-1,2.36-1.56,3.91-2.63,6.32,9.17,9.47,13.76,15.78,22.93,2.61-1.8,3.9-2.72,6.45-4.59l-20.09-27.21C507.71,602.58,505.84,603.88,502,606.38Z"/><path class="cls-1" d="M568.33,565.22c-8.66-6.32-15.22-7.55-21.11-.41-4.58,5.56-4.29,11.68.69,16.28,5.25,4.84,11.51,3.51,15.69-1.51,2.12-2.54,3.1-5.67,2.5-8.15,6,4.66,7.1,7.93,4.32,11.33-2.2,2.69-4.67,3.19-7.08,1.87-1.78,2.06-2.69,3.08-4.53,5.1,4,3,10.16,3.21,15.53-3.34C581,578.23,577.62,572,568.33,565.22Zm-7.87,9.85c-2.72,3.32-5.87,3.08-8.18,1.07a5.37,5.37,0,0,1-.65-8c2.17-2.64,5.12-3.13,8-.85C562.28,569.31,562.71,572.34,560.46,575.07Z"/><path class="cls-1" d="M605.76,506.4a351.43,351.43,0,0,0,32-92.85c5.25-26.86,7.29-55.42,6.24-87.3-.32-10.18-.93-20.37-1.53-30.23-.37-6.16-.74-12.31-1-18.49-1.06-21.71-14.51-38.8-35.1-44.59Q585.44,227,564.53,221l-19.59-5.62a43.16,43.16,0,0,0-4.44-1,125.57,125.57,0,0,0-10.19-14.52l18.45-20.19L444.4,120.82l-1.5-.54a95,95,0,0,0-32.55-5.66q-3.9,0-7.81.3c-20.7,1.56-38.53,8.42-53,20.39a73.44,73.44,0,0,0-25.13,39.35c-.92.34-1.83.69-2.72,1A45.81,45.81,0,0,0,303,189.49c-5.56,2.63-18.39,8.74-18.39,8.74-1.63.78-3.25,1.62-4.82,2.44l-1.67.87a41.26,41.26,0,0,0-19.61,49l.65,2,8.14,13.6c2.63,16.69,13.72,27.27,17.6,31,1.32,1.26,2.69,2.48,4.09,3.64.22,1.44.5,2.86.85,4.25a94.24,94.24,0,0,0-5.72,9.48c-.65,1.26-1.27,2.54-1.95,4A122.52,122.52,0,0,0,265,317.23a100.08,100.08,0,0,0-19.29,1.84,72.29,72.29,0,0,0-53.81,45.75H150V600.15H276.78v-14a363.38,363.38,0,0,0,34.65,32c23.58,19.1,50,35.57,80.67,50.36a49.14,49.14,0,0,0,21.18,4.8A45.13,45.13,0,0,0,432.84,669a470.07,470.07,0,0,0,41.74-22.47l24.3,38.88,14.86-6.75C598.83,640,641,550.31,642.73,546.5L650,530.74ZM506,661.66l-25.63-41a431.12,431.12,0,0,1-55.58,31.48,26.64,26.64,0,0,1-11.55,2.54h0a30.89,30.89,0,0,1-13.1-3c-29.38-14.15-54.57-29.87-77-48.05a334.81,334.81,0,0,1-63.58-67.82l-1.44-2.06v47.72H168.64v-198h37.73a53.54,53.54,0,0,1,42.93-46.1A81.46,81.46,0,0,1,265,335.87c9.95,0,19.35,1.7,28,3.6l5.81-12.5c.7-1.57,1.25-2.73,1.84-3.87a74.51,74.51,0,0,1,10.36-15,31.33,31.33,0,0,1-4-17.33,55.81,55.81,0,0,1-9.25-7.18c-3.33-3.17-11.85-11.31-12.38-23.55l-9.15-15.3A22.6,22.6,0,0,1,287,217.94l1.43-.75c1.39-.73,2.78-1.45,4.19-2.12l1.75-.84q10.48-5,21-9.95A27.53,27.53,0,0,1,328.5,193c4.34-1.71,8.46-3.06,12.48-4.23,1.11-15.46,8-28.86,20.43-39.14,11.45-9.47,25.76-14.9,42.54-16.17,2.13-.16,4.27-.24,6.4-.24a76.78,76.78,0,0,1,26.27,4.57L519.2,184.4,504.92,200a106.22,106.22,0,0,1,23.86,31.82l5.71.58a26.22,26.22,0,0,1,5.44.9L558,238.51q21.66,6.23,43.34,12.37c12.81,3.6,20.86,13.9,21.52,27.56.31,6.24.68,12.47,1.06,18.71.58,9.68,1.18,19.69,1.51,29.69,1,30.47-.93,57.66-5.91,83.13a331.49,331.49,0,0,1-39,103.8L625.8,538.7S585.79,625.46,506,661.66Z"/><path class="cls-1" d="M564.25,540.91c-3.19,5.26-3.1,11.39,3.15,16,1.52-2.22,2.27-3.34,3.72-5.61-3-2-3.88-4.66-2.2-7.42s4.18-3.05,6.79-1.54c5.38,3.11,6.17,13.72,6.52,24.68l4,2.73a200.86,200.86,0,0,0,14-23.14l-4.75-2.52c-3,5.6-4.56,8.34-7.89,13.71-.59-7.68-1.93-18-8.84-21.69C573.56,533.31,568.08,534.61,564.25,540.91Z"/><path class="cls-1" d="M309,469.65a54.54,54.54,0,0,0,1.51-12.71c0-31.75-22.23-51.47-58-51.47H190.65v154h45.49V508h16.4C287.76,508,304.28,489.37,309,469.65Zm-59.15,0H236.14V444.22h13.74c12.83,0,14.56,6.43,14.56,12.72S262.71,469.65,249.88,469.65Zm0-36H225.6v36H201.19V416h51.35c29.72,0,47.46,15.3,47.46,40.93a43.24,43.24,0,0,1-1.91,12.71H271.91A25.12,25.12,0,0,0,275,456.94C275,442.16,265.83,433.68,249.88,433.68Z"/><path class="cls-1" d="M253.41,387.66c7,.14,12.19-3.45,15.14-11.07l30.55,9.75,4.72-21.84c-16.57-3.51-32.94-8.95-50.28-5.55a31.54,31.54,0,0,0-25.49,28.24c-.1,1,0,2,0,3.52C236.52,387.26,244.92,387.49,253.41,387.66Z"/><path class="cls-1" d="M340.26,276.14c5.82-.9,11.57-2.3,17.3-3.69,2.58-.63,4.16.09,5.38,2.31.18.33.38.65.57,1-10,7.31-20.52,13-34.4,11,.47,4.81-2,9.47,3.4,12.51,6.78,3.82,13.49,4.32,20.5.55,5.91-3.18,11.7-8.81,16.33-15.5,25.86-5.31,40.9-30.35,35-51.52-3.73-13.51-15.84-23.79-30.25-25.56-13.15-1.61-25.51,1.55-37.57,6.33a5.33,5.33,0,0,0-2.89,3.23c-.62,2.9-2.39,4.34-4.82,5.48q-13.43,6.3-26.8,12.7c-1.7.81-3.35,1.72-5,2.58l.33,1c7.41.31,14.81.68,22.22.92,2.4.08,4.36.44,4.6,3.44-3.48,2.36-7.15,4.51-10.43,7.13-8.3,6.66-8.41,10.37-.78,17.66S329.87,277.75,340.26,276.14Zm31.29-50-22.21,13-7.63-8.24C351.05,223.71,361.05,223,371.55,226.11Z"/></g></svg>