<svg xmlns="http://www.w3.org/2000/svg" viewBox="0 0 800 800"><defs><style>.cls-1{fill:#ffb902;}</style></defs><g id="FONDOS"><rect class="cls-1" x="-14.81" y="-14.43" width="833.57" height="833.57"/></g><g id="Logo"><path d="M371.92,212.59c-11.48-3.45-22.42-2.62-32.63,5.26l8.35,9Z"/><path d="M238.85,451.14h-15V479h15c14,0,15.92-7,15.92-13.91S252.88,451.14,238.85,451.14Z"/><path d="M600.44,527.2a362.26,362.26,0,0,0,42.68-113.52c5.45-27.86,7.56-57.59,6.47-90.91-.36-10.94-1-21.89-1.65-32.48-.41-6.82-.83-13.64-1.16-20.46-.73-14.94-9.53-26.2-23.54-30.15q-23.73-6.66-47.4-13.52l-19.76-5.67a28.47,28.47,0,0,0-6-1l-6.24-.63a116.25,116.25,0,0,0-26.1-34.81L533.41,167,443.09,116a83.89,83.89,0,0,0-28.73-5c-2.34,0-4.67.08-7,.26-18.35,1.38-34,7.33-46.52,17.68-13.6,11.25-21.14,25.91-22.35,42.81-4.4,1.28-8.9,2.75-13.65,4.63a30.05,30.05,0,0,0-14.42,12.29q-11.48,5.42-22.92,10.89l-1.92.91c-1.54.74-3.07,1.52-4.58,2.32l-1.57.82A24.72,24.72,0,0,0,267.67,233l10,16.74c.56,13.39,9.89,22.28,13.54,25.76a61.18,61.18,0,0,0,10.1,7.84c-.25,7.39,1.25,13.7,4.36,19a81.15,81.15,0,0,0-11.33,16.38c-.65,1.24-1.25,2.51-2,4.23L286,336.58c-9.45-2.08-19.72-3.94-30.61-3.94a88.54,88.54,0,0,0-17.16,1.63,58.56,58.56,0,0,0-46.95,50.42H150v216.6h97.9V549.1l1.58,2.25A365.64,365.64,0,0,0,319,625.53c24.54,19.89,52.09,37.08,84.22,52.55a33.82,33.82,0,0,0,14.33,3.23h0a29.12,29.12,0,0,0,12.64-2.77A470.58,470.58,0,0,0,491,644.11L519,689c87.23-39.59,131-134.48,131-134.48Zm-228.83-52c.72,4,1.71,8,2.57,12l-.95.49c-3.54-4.82-7.7-9.31-10.51-14.52-16.8-31.17-15.94-62.09,2.44-92.36,9.46-15.57,23.51-26.61,37.74-37.45,11-8.4,21.84-17.05,32.69-25.54,0,.26-.16,1.21-.39,2.14-2.73,11.26-8.6,21-15.27,30.22-9.69,13.42-20.44,26.14-29.31,40.07C374.15,416.07,366.08,444.23,371.61,475.19Zm-35.36-20.65-.81.74c-3.92-6.06-8.24-11.89-11.67-18.21-7-12.89-10.13-26.77-8.22-41.44,2.9-22.25,14.46-39.9,31.57-53.42,11.94-9.42,25.45-16.87,38.42-25C396.05,310.7,406.48,304.13,415,295c12.74-13.59,20.88-29.22,20.93-48.24,0-5.52-1-11-1.56-16.56a36.85,36.85,0,0,1,8.77,10.16c7.46,13.77,6.44,27.82.09,41.67-7.53,16.43-19.82,28.74-34.47,38.94-11.75,8.17-23.82,15.95-35,24.8-27.22,21.49-40.51,50-40,84.64C333.83,438.47,335.37,446.5,336.25,454.54Zm85.59-269c-3.81.81-7.45,2.39-11.19,3.56-2.49.78-5,1.46-7.51,2.18l-.92-1.17c1.69-2.68,3.11-5.58,5.11-8a23.76,23.76,0,0,1,30.82-4.76,21.75,21.75,0,0,1,7.67,28.43c-3.89,7.57-13.58,12.17-20.59,9.61,1.38-1.65,2.77-3.22,4-4.88,3.21-4.17,5.85-8.6,5.77-14.12C435,189.06,429,184.05,421.84,185.59ZM419.16,252c-.64,15-6.85,27-17.18,36.94-12.51,12.11-27.93,19-44.16,24.37-14.54,4.8-29,9.84-41.21,19.47-.77.61-1.61,1.14-3.39,2.37,1.16-2.48,1.74-3.89,2.44-5.22a56,56,0,0,1,26-24.92c8.7-4.17,17.82-7.47,26.74-11.2,15.81-6.62,30.59-14.81,41.54-28.47C413.2,261.21,415.94,256.66,419.16,252Zm45.27-19.09c9.79,10.28,14.7,23.16,14.84,37.64.22,21.47-7.22,40.4-21.14,56.64-3.48,4.06-8,7.19-12.82,11.39C459.27,303.7,468.49,269.57,464.43,232.88Zm13.92,96.86-.2.18c-3.82,17.5-12.9,32.29-23.91,46.11-17.85,22.39-39.94,41.33-54.42,67.18a23.5,23.5,0,0,1-1.07-3.59c-1.29-10.82-1.15-21.58,2-32.1,4.72-15.55,15-27.1,27.36-37,12.07-9.6,24.38-18.9,36.43-28.53,4.9-3.92,9.39-8.34,13.57-12.11,0-.18.1-.35.14-.53v-.09C478.3,329.39,478.32,329.53,478.35,329.74ZM416,585.39c-.09-1.46-.13-2.71-.25-3.94-3.07-31.43-6.05-62.88-9.25-94.29-1.18-11.52.24-22.47,5.95-32.59,3.92-6.95,7.71-14.13,12.63-20.35,9.83-12.44,20.44-24.26,30.67-36.38,16.86-20,31.69-41.18,39.42-66.56,1.07-3.53,1.83-7.15,2.73-10.73,5.16,17.35,4.7,34.63.58,51.9-4.72,19.75-14.21,37.41-24.17,54.87-8.68,15.21-15.51,31.16-17.44,48.77-3.23,29.56-6.22,59.15-9.43,88.72-1.13,10.37-3.37,20.51-8.58,29.71-3.79,6.69-8.85,12.6-16.84,13.36-8.75.83-17.64.19-26.85.19C397.27,595.88,403.58,587.92,416,585.39Zm69.77-140.53C496.55,424,509.29,404,515.25,380c1.62,1.84,2.61,2.82,3.44,3.92,16.26,21.65,32.54,43.29,48.64,65.05a6.93,6.93,0,0,1,.69,5.6,299.72,299.72,0,0,1-31.71,61.58c-4.32,6.45-9.08,12.61-14.09,19.53C506.82,520,492,505,477.35,489.91a7.92,7.92,0,0,1-1.92-5.09C475.45,470.64,479.28,457.38,485.75,444.86Zm43.64-190.37c-4.89-5.15-8.73-9.84-13.23-13.76s-9.71-7.11-14.61-10.61l-.72,1c25.43,34.38,36.36,71.48,21.64,113.4a8.72,8.72,0,0,1-1.69-3.75c-3.37-15.05-8.5-29.38-17.6-42a9.72,9.72,0,0,1-1.83-7.74c3.62-26-3.54-48.54-21.71-67.54-.95-1-1.82-2.07-2.73-3.11l.62-.76,16.16,4.53A23.5,23.5,0,0,0,492,221.8c-7.2-7.66-14.67-15.08-21.54-23-3.45-4-5.81-9-9-14C490.32,181.9,526.64,219.33,529.39,254.49Zm-62.83-98.76c9.95,4.34,19.48,9.87,30.83,10,.09.36.18.71.28,1.06a74.29,74.29,0,0,1-7.74,3.49c-10.63,3.44-21.17,1.61-31.44-1.5-23.46-7.1-46.18-6.52-68,5.51a11,11,0,0,1-2.13.54c4.28-8,9.69-14.13,17.07-18.21C425.57,145.5,446.06,146.78,466.56,155.73Zm-90.39-8.19c9.56-7.9,20.86-11.31,33-12.23a61,61,0,0,1,25.81,3.4c-32,2.48-56.05,16.23-71.71,44.25a12.41,12.41,0,0,1-.8-2.28C361.31,167.27,365.77,156.15,376.17,147.54ZM308.7,238.78c3.58-2.87,7.59-5.22,11.41-7.8-.27-3.28-2.41-3.67-5-3.76-8.1-.26-16.2-.66-24.3-1l-.36-1.14c1.84-.94,3.65-1.93,5.51-2.81q14.63-7,29.3-13.9c2.66-1.25,4.6-2.82,5.27-6a5.88,5.88,0,0,1,3.17-3.54c13.18-5.22,26.7-8.68,41.09-6.91,15.76,1.94,29,13.18,33.08,28,6.41,23.15-10.05,50.54-38.32,56.35-5.06,7.32-11.4,13.47-17.87,16.95-7.66,4.12-15,3.58-22.41-.6-5.91-3.33-3.21-8.42-3.73-13.68,15.19,2.22,26.66-4,37.63-12-.2-.36-.42-.72-.62-1.08-1.34-2.43-3.07-3.21-5.88-2.53-6.27,1.53-12.56,3.05-18.93,4-11.36,1.77-21.45-1.2-29.85-9.22S299.62,246.06,308.7,238.78ZM215,388.77a34.47,34.47,0,0,1,27.88-30.88c19-3.73,36.87,2.22,55,6.06-1.79,8.29-3.47,16-5.17,23.89l-33.41-10.67c-3.22,8.34-8.86,12.26-16.55,12.11-9.29-.18-18.48-.44-27.75,3.34C215,390.93,214.87,389.84,215,388.77Zm26.78,132.12H223.82v56.33H174.07V408.76h67.69c39.13,0,63.44,21.57,63.44,56.29A60,60,0,0,1,303.55,479C298.35,500.52,280.29,520.89,241.76,520.89ZM419.85,656.81c-1.65.78-4.42.42-6.18-.42-28.3-13.63-55.05-29.75-79.51-49.56a340.5,340.5,0,0,1-65-69.29,72.24,72.24,0,0,0,18.71-10.32c31.77,45,74.57,79.83,127.06,105.53a6.45,6.45,0,0,0,5,0c32.31-15.91,62.41-35.08,88.31-60.37q81.87-79.93,93.62-193.76c3.24-31.88,2-63.69-.34-95.52-.1-1.25-1.8-3-3.1-3.45-15-4.68-30.05-9.11-45.07-13.71-1.33-.4-3.39-1.34-3.52-2.26-.94-6.62-1.47-13.3-2.15-20.21a13.05,13.05,0,0,1,1.9.21c22.37,6.41,44.73,12.89,67.13,19.19,4.39,1.23,5.8,3.89,6,8.14.85,17.52,2.22,35,2.79,52.56.94,28.69-.5,57.22-6,85.5-11.4,58.31-36.48,110-74.62,155.38C510.62,605.21,467.5,634.12,419.85,656.81Zm119.9-.65L522.5,631.08c-1.7,1.17-2.56,1.75-4.29,2.88l-3.58-5.47c4.17-2.73,6.21-4.15,10.21-7.11,8.78,11.91,13.18,17.86,22,29.76C544,653.19,542.61,654.2,539.75,656.16Zm27.12-21.37c-6.88,6.22-13.58,5-17.36,1.11,2.33-1.89,3.48-2.84,5.75-4.79,2.39,1.82,5.14,1.67,8-.88,3.56-3.22,2.92-6.94-2.84-13,.26,2.77-1.32,6-4,8.41-5.34,4.75-12.35,5.19-17.23-.9-4.64-5.79-3.94-12.47,1.92-17.74,7.53-6.77,14.41-4.37,22.75,3.87C572.76,619.76,575.44,627.05,566.87,634.79Zm26.85-28.16c-5.88,7.17-12.68,7-17,3.65,2-2.2,3-3.32,4.95-5.58,2.64,1.45,5.34.9,7.75-2,3-3.71,1.85-7.29-4.73-12.39.66,2.71-.42,6.13-2.74,8.92-4.56,5.49-11.41,6.94-17.15,1.64-5.45-5-5.76-11.72-.75-17.8,6.43-7.81,13.61-6.46,23.08.45C597.3,590.89,601,597.71,593.72,606.63Zm8.63-21.2c-.39-12-1.25-23.6-7.14-27-2.85-1.65-5.53-1.42-7.42,1.69s-.86,6,2.4,8.11c-1.59,2.48-2.4,3.71-4.07,6.13-6.83-5-6.93-11.72-3.44-17.47,4.19-6.89,10.18-8.31,15.86-5.27,7.56,4,9,15.32,9.67,23.72,3.64-5.87,5.37-8.87,8.62-15L622,563.1a216.93,216.93,0,0,1-15.32,25.31Z"/><path d="M291.58,479a47.39,47.39,0,0,0,2.09-13.91c0-28-19.4-44.76-51.91-44.76H185.6V479h26.7V439.61h26.55c17.45,0,27.45,9.27,27.45,25.44A27.59,27.59,0,0,1,263,479Z"/><path d="M545.28,611.37a5.88,5.88,0,0,0-.61,8.76c2.18,2.55,5.54,3.32,9,.17,2.88-2.6,2.9-5.94.42-8.55C551.32,608.81,548.05,608.87,545.28,611.37Z"/><path d="M568.88,586.67c-2.43,3-2.09,6.32.71,8.75,2.53,2.19,6,2.47,8.95-1.17,2.45-3,2-6.3-.86-8.51C574.48,583.24,571.25,583.79,568.88,586.67Z"/></g></svg>